<svg width="2615" height="1438" viewBox="0 0 2615 1438" fill="none" xmlns="http://www.w3.org/2000/svg">
<path d="M2615 0.263428H0V1438H2615V0.263428Z" fill="url(#paint0_linear)"/>
<path d="M2614.81 0V1049.32C2517.4 1031.78 2424.75 984.131 2379.32 911.036C2350.66 865.029 2339.02 808.123 2288.98 776.867C2247.14 750.642 2188.39 750.384 2137.8 762.489C2087.21 774.595 2041.6 797.311 1993.24 814.248C1917.72 840.961 1832.51 853.728 1752.66 837.539C1672.82 821.35 1600.44 772.697 1578.85 707.366C1555.56 636.601 1589.31 550.279 1530.95 494.811C1465.85 432.759 1332.87 457.056 1260.66 400.553C1214.53 364.409 1207.63 305.433 1217.11 253.559C1226.6 201.686 1249.4 151.394 1251.49 98.945C1252.85 64.4394 1242.32 27.2882 1218.37 0H2614.81Z" fill="url(#paint1_linear)"/>
<path style="mix-blend-mode:screen" opacity="0.7" d="M2582.98 942.868C2496.44 938.669 2406.21 895.595 2385.7 826.095C2367.47 764.243 2404.71 690.947 2358.89 639.649C2323.61 600.169 2251.47 594.475 2196.59 613.367C2141.71 632.259 2100.01 669.755 2060.05 706.044C2020.09 742.332 1978.04 779.742 1922.88 798.059C1894.21 807.597 1863.23 811.484 1832.41 809.414C1801.6 807.347 1771.79 799.373 1745.36 786.134C1718.94 772.896 1696.62 754.754 1680.19 733.154C1663.76 711.553 1653.67 687.086 1650.71 661.704C1644.96 612.821 1665.78 564.858 1672.12 516.119C1678.47 467.379 1664.31 410.071 1611.98 386.722C1567.21 366.795 1512.54 379.131 1462.89 388.361C1413.24 397.592 1353.23 400.668 1319.41 369.297C1280.67 333.382 1301.18 276.851 1327.99 234.15C1375.23 159.014 1438.13 82.3248 1441.51 0H1218.37C1242.32 27.2882 1252.85 64.4393 1251.49 98.945C1249.4 151.394 1226.6 201.686 1217.11 253.559C1207.63 305.433 1214.53 364.409 1260.66 400.496C1332.87 456.999 1465.85 432.701 1530.95 494.754C1589.18 550.222 1555.56 636.543 1578.85 707.309C1600.44 772.697 1672.99 821.494 1752.73 837.654C1832.47 853.814 1917.72 841.076 1993.31 814.363C2041.67 797.282 2087.45 774.509 2137.87 762.604C2188.29 750.7 2247.14 750.786 2289.05 776.982C2339.09 808.238 2350.73 865.115 2379.39 911.151C2424.72 984.246 2517.46 1031.92 2614.88 1049.43V943.155C2604.32 943.414 2593.65 943.356 2582.98 942.868ZM2249.55 694.369C2226.36 705.871 2172.18 705.008 2172.15 674.241C2172.15 648.362 2219.39 631.109 2245.68 631.741C2294.95 632.748 2280.02 679.33 2249.55 694.369ZM2342.12 685.311C2341.42 687.011 2340.28 688.569 2338.79 689.878C2337.3 691.189 2335.49 692.218 2333.47 692.903C2331.19 693.466 2328.79 693.639 2326.42 693.406C2324.05 693.173 2321.76 692.54 2319.7 691.551C2316.2 690.065 2313.14 687.963 2310.73 685.395C2308.32 682.824 2306.62 679.854 2305.75 676.685C2304.08 669.956 2306.31 660.122 2314.96 657.276C2318.2 656.476 2321.63 656.347 2324.94 656.899C2328.25 657.451 2331.35 658.667 2333.96 660.439C2338.93 664.139 2342.13 669.192 2342.96 674.672C2343.75 678.221 2343.46 681.875 2342.12 685.311Z" fill="url(#paint2_linear)"/>
<defs>
<linearGradient id="paint0_linear" x1="2829.67" y1="1974.48" x2="1588.2" y2="469.12" gradientUnits="userSpaceOnUse">
<stop stop-color="#FF6B1F"/>
<stop offset="0.19" stop-color="#FF7121"/>
<stop offset="0.45" stop-color="#FF8328"/>
<stop offset="0.74" stop-color="#FF9F32"/>
<stop offset="1" stop-color="#FFBE3D"/>
</linearGradient>
<linearGradient id="paint1_linear" x1="1213.42" y1="524.659" x2="2614.81" y2="524.659" gradientUnits="userSpaceOnUse">
<stop stop-color="#8EE5B6"/>
<stop offset="1" stop-color="#00C4D8"/>
</linearGradient>
<linearGradient id="paint2_linear" x1="1983.17" y1="462.175" x2="1696.38" y2="858.548" gradientUnits="userSpaceOnUse">
<stop stop-color="#A7EBEB"/>
<stop offset="1" stop-color="#A7EBEB" stop-opacity="0"/>
</linearGradient>
</defs>
</svg>
