<svg width="739" height="500" viewBox="0 0 739 500" fill="none" xmlns="http://www.w3.org/2000/svg">
<g clip-path="url(#clip0)">
<path d="M750 0H0V500H750V0Z" fill="url(#paint0_linear)"/>
<path d="M738.93 -2V362.92C710.99 356.82 684.42 340.25 671.39 314.83C663.17 298.83 659.83 279.04 645.48 268.17C633.48 259.05 616.63 258.96 602.12 263.17C587.61 267.38 574.53 275.28 560.66 281.17C539 290.46 514.56 294.9 491.66 289.27C468.76 283.64 448 266.72 441.81 244C435.13 219.39 444.81 189.37 428.07 170.08C409.4 148.5 371.26 156.95 350.55 137.3C337.32 124.73 335.34 104.22 338.06 86.18C340.78 68.14 347.32 50.65 347.92 32.41C348.31 20.41 345.29 7.49 338.42 -2H738.93Z" fill="url(#paint1_linear)"/>
<path style="mix-blend-mode:screen" opacity="0.7" d="M729.77 325.9C704.95 324.44 679.07 309.46 673.19 285.29C667.96 263.78 678.64 238.29 665.5 220.45C655.38 206.72 634.69 204.74 618.95 211.31C603.21 217.88 591.25 230.92 579.79 243.54C568.33 256.16 556.27 269.17 540.45 275.54C532.226 278.857 523.341 280.209 514.502 279.489C505.664 278.77 497.115 275.997 489.536 271.393C481.957 266.789 475.556 260.48 470.844 252.968C466.131 245.456 463.237 236.947 462.39 228.12C460.74 211.12 466.71 194.44 468.53 177.49C470.35 160.54 466.29 140.61 451.28 132.49C438.44 125.56 422.76 129.85 408.52 133.06C394.28 136.27 377.07 137.34 367.37 126.43C356.26 113.94 362.14 94.28 369.83 79.43C383.38 53.3 401.42 26.63 402.39 -2H338.39C345.26 7.49 348.28 20.41 347.89 32.41C347.29 50.65 340.75 68.14 338.03 86.18C335.31 104.22 337.29 124.73 350.52 137.28C371.23 156.93 409.37 148.48 428.04 170.06C444.74 189.35 435.1 219.37 441.78 243.98C447.97 266.72 468.78 283.69 491.65 289.31C514.52 294.93 538.97 290.5 560.65 281.21C574.52 275.27 587.65 267.35 602.11 263.21C616.57 259.07 633.45 259.1 645.47 268.21C659.82 279.08 663.16 298.86 671.38 314.87C684.38 340.29 710.98 356.87 738.92 362.96V326C735.89 326.09 732.83 326.07 729.77 325.9ZM634.14 239.48C627.49 243.48 611.95 243.18 611.94 232.48C611.94 223.48 625.49 217.48 633.03 217.7C647.16 218.05 642.88 234.25 634.14 239.48ZM660.69 236.33C660.489 236.921 660.163 237.463 659.736 237.918C659.308 238.374 658.788 238.732 658.21 238.97C657.554 239.166 656.866 239.226 656.186 239.145C655.507 239.064 654.851 238.844 654.26 238.5C653.256 237.983 652.378 237.252 651.687 236.359C650.996 235.465 650.509 234.432 650.26 233.33C649.78 230.99 650.42 227.57 652.9 226.58C653.829 226.302 654.812 226.257 655.762 226.449C656.713 226.641 657.602 227.064 658.35 227.68C659.776 228.967 660.692 230.724 660.93 232.63C661.157 233.864 661.075 235.135 660.69 236.33Z" fill="url(#paint2_linear)"/>
</g>
<defs>
<linearGradient id="paint0_linear" x1="811.57" y1="686.57" x2="371.78" y2="246.78" gradientUnits="userSpaceOnUse">
<stop stop-color="#FF6B1F"/>
<stop offset="0.19" stop-color="#FF7121"/>
<stop offset="0.45" stop-color="#FF8328"/>
<stop offset="0.74" stop-color="#FF9F32"/>
<stop offset="1" stop-color="#FFBE3D"/>
</linearGradient>
<linearGradient id="paint1_linear" x1="337" y1="180.46" x2="738.93" y2="180.46" gradientUnits="userSpaceOnUse">
<stop stop-color="#8EE5B6"/>
<stop offset="1" stop-color="#00C4D8"/>
</linearGradient>
<linearGradient id="paint2_linear" x1="557.74" y1="158.73" x2="453.63" y2="277.4" gradientUnits="userSpaceOnUse">
<stop stop-color="#A7EBEB"/>
<stop offset="1" stop-color="#A7EBEB" stop-opacity="0"/>
</linearGradient>
<clipPath id="clip0">
<rect width="739" height="500" fill="white"/>
</clipPath>
</defs>
</svg>
