<svg width="289" height="74" viewBox="0 0 289 74" fill="none" xmlns="http://www.w3.org/2000/svg">
<path d="M143.41 48.13C143.41 48.13 135.29 28.53 119.27 26.72C103.25 24.91 72 43.34 18.08 43.34L7.52002 59.34H143.41V48.13Z" fill="#CADFEF"/>
<path d="M143.41 48.13C143.41 48.13 144.75 30.96 136.2 26.59C125.59 21.17 86.33 32.78 39.31 0.140015L24.75 28.78C24.75 28.78 42 39.84 71.83 43C109.93 47 125.58 24.46 143.41 48.13Z" fill="white"/>
<path d="M143.42 48.13C143.42 48.13 151.54 28.53 167.56 26.72C183.58 24.91 214.88 43.34 268.75 43.34L279.31 59.34H143.42V48.13Z" fill="#CADFEF"/>
<path d="M143.41 45.84C143.41 45.84 147.3 26.23 163.32 24.14C179.34 22.05 215.73 36.78 225.93 37.88C236.13 38.98 266.33 39.88 266.33 39.88L271.92 48.13C271.92 48.13 236.92 47.79 226.29 46.61C213.19 45.16 184.79 28.78 165.5 31.51C146.21 34.24 144 48.15 144 48.15L143.41 45.84Z" fill="white"/>
<path d="M288.54 59.35H0.969971V67.36H288.54V59.35Z" fill="#8D5115"/>
<path d="M153.61 73.91H133.23C131.844 73.9113 130.471 73.6394 129.19 73.1098C127.908 72.5802 126.744 71.8033 125.764 70.8235C124.783 69.8437 124.005 68.6803 123.474 67.3996C122.943 66.119 122.67 64.7463 122.67 63.36H164.17C164.17 64.7463 163.897 66.119 163.366 67.3996C162.835 68.6803 162.057 69.8437 161.076 70.8235C160.096 71.8033 158.931 72.5802 157.65 73.1098C156.369 73.6394 154.996 73.9113 153.61 73.91Z" fill="#8D5115"/>
<path d="M151.82 68H135C132.693 67.9974 130.482 67.0799 128.851 65.4489C127.22 63.8179 126.303 61.6066 126.3 59.3V59.3L143.41 45.83L160.52 59.3C160.517 61.6066 159.6 63.8179 157.969 65.4489C156.338 67.0799 154.127 67.9974 151.82 68Z" fill="#774206"/>
<path d="M160.52 59.31C160.525 61.1498 159.944 62.9433 158.86 64.43L143.41 52.28L128 64.43C126.921 62.9411 126.34 61.149 126.34 59.31L143.45 45.84L160.52 59.31Z" fill="#FFD524"/>
</svg>
