<svg xmlns="http://www.w3.org/2000/svg" xmlns:xlink="http://www.w3.org/1999/xlink" viewBox="0 0 401.93 364.92"><defs><style>.cls-1{isolation:isolate;}.cls-2{fill:url(#linear-gradient);}.cls-3{opacity:0.7;mix-blend-mode:screen;fill:url(#linear-gradient-2);}.cls-4{fill:#ffd524;}.cls-5{fill:#ffc32e;}.cls-6{fill:#ffe2b2;}.cls-7{fill:#3d4051;}.cls-8{fill:#ff582a;}.cls-9{fill:#ae1e0b;}.cls-10{fill:#009fda;}.cls-11{fill:#0071b8;}.cls-12{fill:#484d5b;}.cls-13{fill:#cadfef;}.cls-14{fill:#fff;}.cls-15{fill:#8d5115;}.cls-16{fill:#774206;}.cls-17{mix-blend-mode:multiply;}.cls-18{fill:#00c4d8;}.cls-19{fill:#008c41;}.cls-20{fill:#00b255;}</style><linearGradient id="linear-gradient" y1="182.46" x2="401.93" y2="182.46" gradientUnits="userSpaceOnUse"><stop offset="0" stop-color="#8ee5b6"/><stop offset="1" stop-color="#00c4d8"/></linearGradient><linearGradient id="linear-gradient-2" x1="220.74" y1="160.73" x2="116.63" y2="279.4" gradientUnits="userSpaceOnUse"><stop offset="0" stop-color="#a7ebeb"/><stop offset="1" stop-color="#a7ebeb" stop-opacity="0"/></linearGradient></defs><title>Asset 4</title><g class="cls-1"><g id="Layer_2" data-name="Layer 2"><g id="OBJECTS"><path class="cls-2" d="M401.93,0V364.92c-27.94-6.1-54.51-22.67-67.54-48.09-8.22-16-11.56-35.79-25.91-46.66-12-9.12-28.85-9.21-43.36-5s-27.59,12.11-41.46,18c-21.66,9.29-46.1,13.73-69,8.1S111,268.72,104.81,246c-6.68-24.61,3-54.63-13.74-73.92-18.67-21.58-56.81-13.13-77.52-32.78C.32,126.73-1.66,106.22,1.06,88.18s9.26-35.53,9.86-53.77c.39-12-2.63-24.92-9.5-34.41Z"/><path class="cls-3" d="M392.77,327.9c-24.82-1.46-50.7-16.44-56.58-40.61-5.23-21.51,5.45-47-7.69-64.84-10.12-13.73-30.81-15.71-46.55-9.14s-27.7,19.61-39.16,32.23-23.52,25.63-39.34,32a57,57,0,0,1-78.06-47.42c-1.65-17,4.32-33.68,6.14-50.63s-2.24-36.88-17.25-45c-12.84-6.93-28.52-2.64-42.76.57s-31.45,4.28-41.15-6.63c-11.11-12.49-5.23-32.15,2.46-47C46.38,55.3,64.42,28.63,65.39,0h-64c6.87,9.49,9.89,22.41,9.5,34.41-.6,18.24-7.14,35.73-9.86,53.77s-.74,38.55,12.49,51.1c20.71,19.65,58.85,11.2,77.52,32.78,16.7,19.29,7.06,49.31,13.74,73.92,6.19,22.74,27,39.71,49.87,45.33s47.32,1.19,69-8.1c13.87-5.94,27-13.86,41.46-18s31.34-4.11,43.36,5c14.35,10.87,17.69,30.65,25.91,46.66,13,25.42,39.6,42,67.54,48.09V328C398.89,328.09,395.83,328.07,392.77,327.9Zm-95.63-86.42c-6.65,4-22.19,3.7-22.2-7,0-9,13.55-15,21.09-14.78C310.16,220.05,305.88,236.25,297.14,241.48Zm26.55-3.15a4.38,4.38,0,0,1-2.48,2.64,5,5,0,0,1-3.95-.47,7.73,7.73,0,0,1-4-5.17c-.48-2.34.16-5.76,2.64-6.75a5.91,5.91,0,0,1,5.45,1.1,8,8,0,0,1,2.58,4.95A7.59,7.59,0,0,1,323.69,238.33Z"/><path class="cls-4" d="M322.2,226.44l43.32-68a4.37,4.37,0,0,1,6-1.34L376,160a4.38,4.38,0,0,1,1.33,6L334,234l-7.54,5.1-7.07,4.79,1.35-8.44Z"/><path class="cls-5" d="M328.12,230.21l45.67-71.68L376,160a4.38,4.38,0,0,1,1.33,6L334,234Z"/><polygon class="cls-6" points="322.2 226.44 334.03 233.98 326.49 239.08 319.42 243.87 320.77 235.43 322.2 226.44"/><polygon class="cls-7" points="320.77 235.43 326.49 239.08 319.42 243.87 320.77 235.43"/><path class="cls-8" d="M361.08,165.42l4.44-7a4.37,4.37,0,0,1,6-1.34L376,160a4.38,4.38,0,0,1,1.33,6l-4.44,7Z"/><rect class="cls-7" x="358.67" y="168.8" width="14.03" height="4.89" transform="translate(582.07 512.17) rotate(-147.5)"/><path class="cls-9" d="M367,169.19l6.79-10.66L376,160a4.38,4.38,0,0,1,1.33,6l-4.44,7Z"/><path class="cls-10" d="M46.12,101.42l76.49-25.49a4.37,4.37,0,0,1,5.53,2.76l1.67,5A4.37,4.37,0,0,1,127,89.24L50.56,114.73l-9.07-.79L33,113.2l6.37-5.7Z"/><path class="cls-11" d="M48.34,108.08,129,81.2l.84,2.51A4.37,4.37,0,0,1,127,89.24L50.56,114.73Z"/><polygon class="cls-6" points="46.13 101.42 50.56 114.73 41.49 113.94 32.98 113.2 39.34 107.5 46.13 101.42"/><polygon class="cls-7" points="39.34 107.5 41.49 113.94 32.98 113.2 39.34 107.5"/><path class="cls-4" d="M114.77,78.54l7.84-2.61a4.37,4.37,0,0,1,5.53,2.76l1.67,5A4.37,4.37,0,0,1,127,89.24l-7.84,2.61Z"/><rect class="cls-7" x="107.65" y="83.52" width="14.03" height="4.89" transform="translate(69.37 221.93) rotate(-108.44)"/><path class="cls-5" d="M117,85.19l12-4,.84,2.51A4.37,4.37,0,0,1,127,89.24l-7.84,2.61Z"/><path class="cls-7" d="M199,106.52l-53.58,18.32,9.46,27.25a62.13,62.13,0,0,0,53.49-18.56Z"/><polygon class="cls-7" points="229.87 97.74 181.62 141.43 116.68 137.03 123.43 130.92 127.07 127.62 164.93 93.34 215.89 96.8 220.78 97.13 229.87 97.74"/><polygon class="cls-12" points="220.78 97.13 179.28 134.7 123.43 130.92 127.07 127.62 164.93 93.34 215.89 96.8 220.78 97.13"/><polygon class="cls-4" points="114.62 174.47 112 174.23 115.44 136.11 172.44 112.72 173.43 115.16 117.92 137.94 114.62 174.47"/><path class="cls-4" d="M114.7,160.26l-.54-.17c-1.62.61-7.28,3.76-8.39,17.93l11.74,1.82C120.54,166,116.1,161.35,114.7,160.26Z"/><path class="cls-13" d="M348.41,75.43a6.28,6.28,0,1,1,8.48,2.65A6.27,6.27,0,0,1,348.41,75.43Zm10.21-5.34a5.24,5.24,0,1,0-2.21,7.08A5.25,5.25,0,0,0,358.62,70.09Z"/><rect class="cls-14" x="311.83" y="87.1" width="24.04" height="1.81" transform="translate(251.54 -239.71) rotate(62.36)"/><polygon class="cls-13" points="296.41 117.91 291.4 122.97 297.3 118.99 302.48 114.71 301.59 113.63 296.41 117.91"/><rect class="cls-7" x="292.32" y="94.79" width="65.59" height="4.1" transform="translate(12.84 229.36) rotate(-39.58)"/><path class="cls-14" d="M308.63,115.51a3.89,3.89,0,1,1,.52-5.47A3.9,3.9,0,0,1,308.63,115.51Z"/><path class="cls-13" d="M307.57,114.23a2.22,2.22,0,1,1,.29-3.13A2.22,2.22,0,0,1,307.57,114.23Z"/><polygon class="cls-13" points="283.98 94.18 276.97 95.42 283.6 92.83 290.07 91.01 290.45 92.36 283.98 94.18"/><rect class="cls-7" x="284.85" y="80.53" width="65.59" height="4.1" transform="translate(-10.49 89.08) rotate(-15.71)"/><rect class="cls-7" x="351.65" y="70" width="11.22" height="1.6" transform="translate(7.94 173.85) rotate(-27.65)"/><path class="cls-13" d="M318.67,90.72h0a1.19,1.19,0,0,1,.5-1.6l8.1-4.24a1.18,1.18,0,0,1,1.59.5h0a1.19,1.19,0,0,1-.5,1.6l-8.09,4.23A1.19,1.19,0,0,1,318.67,90.72Z"/><path class="cls-14" d="M352.14,78.38A4.34,4.34,0,1,1,354,72.52,4.35,4.35,0,0,1,352.14,78.38Z"/><path class="cls-13" d="M351.25,76.69a2.43,2.43,0,1,1,1-3.29A2.43,2.43,0,0,1,351.25,76.69Z"/><rect class="cls-14" x="366.24" y="55.64" width="4.66" height="18.46" rx="1.58" transform="translate(255.07 -291.73) rotate(62.36)"/><path class="cls-13" d="M224,268.69s-8.12-19.61-24.14-21.42-47.32,16.62-101.19,16.62l-10.56,16H224Z"/><path class="cls-14" d="M224,268.69s1.34-17.18-7.21-21.55c-10.61-5.41-49.87,6.19-96.89-26.45l-14.56,28.64s17.26,11.06,47.08,14.19C190.47,267.53,206.11,245,224,268.69Z"/><path class="cls-13" d="M224,268.69s8.12-19.61,24.14-21.42,47.32,16.62,101.19,16.62l10.56,16H224Z"/><path class="cls-14" d="M224,266.39s3.89-19.61,19.91-21.7,52.41,12.64,62.6,13.74,40.41,2,40.41,2l5.58,8.26s-35-.35-45.62-1.53c-13.11-1.45-41.5-17.83-60.79-15.1s-21.48,16.64-21.48,16.64Z"/><rect class="cls-15" x="81.51" y="279.9" width="287.57" height="8.01"/><path class="cls-15" d="M234.15,294.46H213.76a10.55,10.55,0,0,1-10.55-10.55H244.7A10.55,10.55,0,0,1,234.15,294.46Z"/><path class="cls-16" d="M232.36,288.56H215.55a8.69,8.69,0,0,1-8.7-8.7h0L224,266.39l17.1,13.47h0A8.69,8.69,0,0,1,232.36,288.56Z"/><path class="cls-4" d="M241.06,279.86A8.65,8.65,0,0,1,239.4,285L224,272.83,208.5,285a8.65,8.65,0,0,1-1.66-5.12L224,266.39Z"/><g class="cls-17"><path class="cls-18" d="M105.44,66.46a3.69,3.69,0,0,1-4.88,1.83l-8.48-3.85a.52.52,0,0,1,.43-.95L101,67.35a2.64,2.64,0,0,0,2.19-4.81l-9.8-4.46a1.85,1.85,0,0,0-1.52,3.37L100,65.12a1.09,1.09,0,1,0,.9-2l-6-2.72a.52.52,0,1,1,.43-.94l6,2.72a2.13,2.13,0,1,1-1.76,3.87l-8.09-3.68a2.88,2.88,0,1,1,2.38-5.25l9.8,4.45A3.68,3.68,0,0,1,105.44,66.46Z"/></g><g class="cls-17"><path class="cls-18" d="M92.13,140.24l.59-.28c2-1,3-2.28,2.82-3.53-.16-1.52-2-2.63-4.67-3.11.26-2.75-.33-4.78-1.75-5.35s-3.24.51-4.94,2.68c-2.31-1.52-4.38-2-5.54-1-1,.81-1.09,2.41-.38,4.5.07.2.15.41.23.61-2.25,1-3.57,2.41-3.42,3.83.11,1.07,1,1.94,2.52,2.53a10.72,10.72,0,0,0,2.16.58c-.27,2.75.32,4.79,1.74,5.35s3.25-.5,5-2.68a11,11,0,0,0,2,1.07c1.48.59,2.75.59,3.56-.1C93.06,144.45,93.05,142.54,92.13,140.24Zm.55-5.38c1.13.45,1.8,1,1.87,1.68.09.8-.75,1.72-2.3,2.53l-.53.26a18.47,18.47,0,0,0-1.53-2.6,20,20,0,0,0,.55-2.4A11.44,11.44,0,0,1,92.68,134.86Zm-7,6c-.61.07-1.19.11-1.75.13-.4-.41-.79-.83-1.18-1.29s-.85-1-1.23-1.57c.19-.6.41-1.23.66-1.87s.53-1.24.81-1.81c.63-.12,1.28-.22,2-.29s1.18-.1,1.74-.12c.4.4.79.83,1.19,1.29s.85,1.05,1.22,1.56c-.19.61-.41,1.23-.66,1.87s-.53,1.24-.81,1.81C87,140.71,86.34,140.81,85.67,140.88Zm1.36.83c-.27.47-.55.9-.82,1.31-.43-.32-.86-.68-1.3-1.07l.86-.07Zm-4.48-.7c-.59,0-1.15-.06-1.67-.12.07-.48.18-1,.3-1.51.26.33.52.66.8,1S82.36,140.8,82.55,141Zm-1.74-3.91a17.46,17.46,0,0,1-1-1.75,19.21,19.21,0,0,1,1.93-.6c-.18.38-.34.76-.5,1.16S80.94,136.71,80.81,137.1Zm2.78-3.75c.27-.46.54-.9.82-1.3.42.32.85.67,1.29,1.06-.28,0-.57,0-.86.08S84,133.29,83.59,133.35Zm4.48.71a14.39,14.39,0,0,1,1.66.12c-.07.48-.17,1-.3,1.51-.25-.33-.51-.66-.79-1ZM89.8,138a15.9,15.9,0,0,1,1,1.75,17.27,17.27,0,0,1-1.92.59c.17-.37.34-.76.5-1.16S89.67,138.36,89.8,138Zm-1-9.07c.88.35,1.31,2,1.11,4.26A24.2,24.2,0,0,0,87.1,133,22.27,22.27,0,0,0,85,131.23C86.45,129.42,87.88,128.55,88.75,128.9Zm-9.47,1.55c.49-.41,1.39-.38,2.52.07a10.75,10.75,0,0,1,1.77.95,22.84,22.84,0,0,0-1.26,2.12,19.54,19.54,0,0,0-2.9.83c-.07-.19-.14-.37-.2-.55C78.64,132.22,78.67,131,79.28,130.45Zm-3.22,8.07c-.09-.87,1-1.92,2.84-2.79a19.65,19.65,0,0,0,1.52,2.6,19.66,19.66,0,0,0-.55,2.41C77.6,140.31,76.16,139.46,76.06,138.52Zm5.8,7.65c-.87-.35-1.31-2-1.1-4.28a20.12,20.12,0,0,0,2.76.13,19.77,19.77,0,0,0,2.08,1.81C84.16,145.64,82.74,146.52,81.86,146.17Zm9.47-1.56c-.72.61-2.35.24-4.29-1a20.29,20.29,0,0,0,1.26-2.13,20.49,20.49,0,0,0,2.89-.83C92,142.56,92,144.05,91.33,144.61Z"/><path class="cls-18" d="M86,135.72a1.95,1.95,0,1,0,1.09,2.53A1.95,1.95,0,0,0,86,135.72Z"/></g><g class="cls-17"><path class="cls-18" d="M362.58,222.4a5.4,5.4,0,0,0,2.79,6.36l-.76,2.57a3,3,0,0,0-2.7,1.93l5.7,1.69a3,3,0,0,0-1.23-3.09l.76-2.57a5.41,5.41,0,0,0,5.8-3.84l2-6.82-10.37-3.06Z"/><path class="cls-18" d="M368,235.58l-6.81-2a.56.56,0,0,0-.31,1.07l6.81,2a.56.56,0,1,0,.31-1.07Z"/><path class="cls-18" d="M359.24,218.45a3,3,0,0,0,2,3.73l.6.18.33-1.15-.59-.17a1.81,1.81,0,1,1,1-3.48l.6.18.34-1.14-.6-.18A3,3,0,0,0,359.24,218.45Z"/><path class="cls-18" d="M375.86,220.22l-.6-.17-.33,1.14.59.18a1.81,1.81,0,1,1-1,3.47l-.6-.17-.34,1.14.6.17a3,3,0,0,0,1.7-5.76Z"/></g><g class="cls-17"><path class="cls-18" d="M365.62,110.06l-1.95-3.41-5.16,2.94,1.94,3.42a5.38,5.38,0,1,0,5.17-3Zm1.49,8.61a3.73,3.73,0,0,1-5.1-1.39.08.08,0,0,1,0,0l6.48-3.7s0,0,0,0A3.74,3.74,0,0,1,367.11,118.67Z"/><path class="cls-18" d="M358.08,108.72l5.06-2.89a1.06,1.06,0,0,0-1.05-1.84L357,106.87a1.06,1.06,0,1,0,1.05,1.85Z"/></g><g class="cls-17"><path class="cls-18" d="M263.86,78a4,4,0,0,0,0-5.29,3.93,3.93,0,0,0-1.52-1.09l-.28-1.74a2.2,2.2,0,0,0-2-1.85l-6.74-.48A2.21,2.21,0,0,0,251.1,69l-.58,1.77a4,4,0,0,0-2.3,6.08l2.47-2.14.56.64a6.3,6.3,0,0,0-.56,7.83l-1.17,1a.69.69,0,0,0,.91,1.05l1.17-1a6.3,6.3,0,0,0,7.84.58l1.15,1.33a.71.71,0,0,0,1,.07.7.7,0,0,0,.07-1l-1.15-1.33a6.3,6.3,0,0,0,.56-7.87l.65-.56Zm-3.62.66-4.07,2.12a.83.83,0,0,1-.37.08.77.77,0,0,1-.46-.22l-2.89-3a.69.69,0,0,1,0-1,.69.69,0,0,1,1,0L256,79.26l3.61-1.87a.69.69,0,0,1,.94.29A.68.68,0,0,1,260.24,78.62ZM258.66,72l2.14,2.47-.65.57a6.42,6.42,0,0,0-3-1.53l.06-.9a.82.82,0,1,0-1.64-.12l-.07.9a6.23,6.23,0,0,0-3.2,1.11l-.55-.64,2.47-2.14a4,4,0,0,0-2.68-1l.45-1.35a1.25,1.25,0,0,1,1.3-.87l6.73.48A1.28,1.28,0,0,1,261.19,70l.21,1.33A4,4,0,0,0,258.66,72Z"/><path class="cls-18" d="M264.76,69.86c-.5-.33-1,.43-.53.76a4.46,4.46,0,0,1,2,3.89c0,.59.9.66.92.06A5.4,5.4,0,0,0,264.76,69.86Z"/><path class="cls-18" d="M266.56,68.7c-.49-.33-1,.43-.52.76a4.43,4.43,0,0,1,2,3.88c0,.6.91.67.93.07A5.38,5.38,0,0,0,266.56,68.7Z"/><path class="cls-18" d="M248.15,68.67a.46.46,0,0,1,.41.83A4.44,4.44,0,0,0,246,73.06c-.07.59-1,.53-.93-.07A5.39,5.39,0,0,1,248.15,68.67Z"/><path class="cls-18" d="M246.53,67.26c.54-.25.95.58.41.83a4.47,4.47,0,0,0-2.55,3.56c-.06.59-1,.53-.92-.07A5.39,5.39,0,0,1,246.53,67.26Z"/></g><g class="cls-17"><path class="cls-18" d="M163,71.06l.33,1.5-3.78.83.29,1.34,3.42-.75.32,1.49-3.41.75.3,1.35,3.88-.86.33,1.5-5.75,1.26-1.58-7.16Z"/><path class="cls-18" d="M168.87,72l.25,1.17-4.55,1L164.31,73Zm.48,2.21.26,1.17-4.56,1-.25-1.16Z"/><path class="cls-18" d="M179.6,71.26l.77,3.48-1.82.4-.65-3a.91.91,0,0,0-1.13-.81,1.12,1.12,0,0,0-.77,1.48l.6,2.72-1.82.41-.65-3A.92.92,0,0,0,173,72.2a1.13,1.13,0,0,0-.77,1.48l.6,2.73-1.81.4-1.22-5.53,1.81-.4.2.91a2,2,0,0,1,1.58-1.38,1.88,1.88,0,0,1,2.11.83,2,2,0,0,1,1.66-1.66A2,2,0,0,1,179.6,71.26Z"/><path class="cls-18" d="M183.19,69.84a1.21,1.21,0,0,0-.81,1.58c.18.81.75,1.24,1.4,1.09a1.16,1.16,0,0,0,.95-.86l1.5.47a3,3,0,0,1-5.68-.29,2.77,2.77,0,0,1,2.24-3.48,2.81,2.81,0,0,1,2.76.76l-1.15,1.06A1.29,1.29,0,0,0,183.19,69.84Z"/><path class="cls-18" d="M187.68,66c-.05-.22-.25-.31-.55-.25a2,2,0,0,0-1,.78l-.58-.71a2.93,2.93,0,0,1,1.56-1c.83-.18,1.53.12,1.68.77a2.28,2.28,0,0,1-.5,1.54l-.66,1,1.76-.39.19.87-3.13.68-.16-.7,1.16-1.87A1.35,1.35,0,0,0,187.68,66Z"/></g><g class="cls-17"><path class="cls-18" d="M123.14,188.53a7.8,7.8,0,0,0-3.81,6.12,8.85,8.85,0,0,0,2.59,6.81,12.06,12.06,0,0,0,3.76,2.46c3.81,1.64,8.91,1.93,12.4-.62a4.28,4.28,0,0,0,2-3.46c-.11-1.59-1.54-1.89-2.73-2.46a6,6,0,0,1-2.43-2.59c-1.32-2.26-2.48-4.8-4.69-6.2a7,7,0,0,0-4.77-.91A6.86,6.86,0,0,0,123.14,188.53Zm6.38,15.18a1.58,1.58,0,1,1,.84-2.07A1.56,1.56,0,0,1,129.52,203.71Zm5.61-4.66a1.16,1.16,0,1,1-1.46-.74A1.16,1.16,0,0,1,135.13,199.05Zm-9.29.27a1.58,1.58,0,0,1-.83,2.07,1.58,1.58,0,1,1,.83-2.07Zm-3.28-1.94a1.58,1.58,0,1,1,.84-2.08A1.58,1.58,0,0,1,122.56,197.38Zm7.13-5.58a1.58,1.58,0,1,1-2.08-.83A1.59,1.59,0,0,1,129.69,191.8Zm-4.6-.82a1.58,1.58,0,1,1-2.08-.83A1.59,1.59,0,0,1,125.09,191Z"/><path class="cls-18" d="M113.48,204.49a.07.07,0,0,0,0,.06v0l.06.05,0,0a.36.36,0,0,0,.12.08l.08.05.08,0,.13.06h0c2.3,1.14,11.5,4.1,17.25,5.73h0l.41.11h0l1.42.37.94.21.31.06.83.15.46.06h0a1.38,1.38,0,0,0,1,.89l.32,0a5.88,5.88,0,0,0,1.25-.24,2.09,2.09,0,0,1,1.73.43l.09.06.21.17a4.87,4.87,0,0,0-.8-1.79,3.72,3.72,0,0,0-1.65-1.26,2,2,0,0,0-1.43,0l-.29.17c-.29-.14-.75-.33-1.27-.52-.87-.32-1.9-.65-2.62-.86C125.71,206.79,113.64,203.91,113.48,204.49Z"/></g><polygon class="cls-14" points="70.35 38.68 68.39 40.88 69.08 43.74 66.39 42.55 63.88 44.09 64.18 41.16 61.93 39.26 64.81 38.63 65.94 35.91 67.42 38.46 70.35 38.68"/><polygon class="cls-14" points="142.72 162.91 140.75 165.1 141.45 167.97 138.75 166.78 136.24 168.32 136.54 165.39 134.3 163.48 137.18 162.86 138.3 160.14 139.78 162.68 142.72 162.91"/><polygon class="cls-14" points="221.92 76.2 219.03 76.78 217.87 79.48 216.43 76.92 213.49 76.65 215.49 74.48 214.83 71.61 217.51 72.84 220.04 71.33 219.7 74.26 221.92 76.2"/><polygon class="cls-14" points="375.74 42.48 372.85 43.06 371.69 45.77 370.24 43.2 367.31 42.93 369.31 40.76 368.65 37.89 371.33 39.12 373.86 37.61 373.52 40.54 375.74 42.48"/><polygon class="cls-14" points="345.68 141.79 342.79 142.38 341.63 145.08 340.19 142.51 337.25 142.25 339.25 140.08 338.59 137.21 341.27 138.44 343.8 136.93 343.46 139.85 345.68 141.79"/><polygon class="cls-14" points="377.78 257.38 374.89 257.96 373.73 260.67 372.29 258.1 369.35 257.84 371.35 255.67 370.69 252.8 373.37 254.03 375.9 252.52 375.56 255.44 377.78 257.38"/><polygon class="cls-14" points="45.98 142.5 43.1 143.08 41.94 145.79 40.49 143.22 37.56 142.95 39.55 140.78 38.9 137.91 41.58 139.14 44.11 137.63 43.77 140.56 45.98 142.5"/><path class="cls-8" d="M269.45,122.59l-5.48,1-4.38-3.43a10.25,10.25,0,0,0-9.29-1.9c-3.84,1.2-8.21,5-10.31,15.53-4.2,21,15.34,24.19,15.34,24.19s18.71,6.44,24.95-14.06c3.12-10.25,1.07-15.69-1.75-18.56A10.24,10.24,0,0,0,269.45,122.59Z"/><path class="cls-9" d="M261.2,158.86a21.7,21.7,0,0,1-5.88-.93s-19.53-3.19-15.33-24.19c2.11-10.51,6.47-14.32,10.31-15.52a10.22,10.22,0,0,1,9.29,1.89l1.57,1.23c-3.67,1.41-7.67,5.36-9.67,15.29C248.81,150,255.79,156.19,261.2,158.86Z"/><path class="cls-7" d="M273,116.27a13.22,13.22,0,0,0-12.68,11.56c-.28,2.07,2.91,2.83,3.19.74a10,10,0,0,1,9.6-9C275.26,119.44,275.16,116.17,273,116.27Z"/><path class="cls-19" d="M260.5,112.18c3.12,5.21.71,12.39.71,12.39s-7.46-1.28-10.58-6.49-.71-12.39-.71-12.39S257.38,107,260.5,112.18Z"/><path class="cls-15" d="M314.22,167c-3.18.82-13.68,6.33-19.31,9.71-29,17.39-80.14,50.94-78.61,53.49s55.2-26.84,84.17-44.23c5.62-3.38,15.39-9.9,17.65-12.48Z"/><path class="cls-14" d="M300.47,186c5.62-3.38,15.39-9.9,17.65-12.48l-3.9-6.49c-3.18.82-13.68,6.33-19.31,9.71L293,177.88l5.55,9.25Z"/><path class="cls-16" d="M221.6,228.81c-3.12,1.31-5,1.86-5.3,1.41-1.54-2.56,49.65-36.1,78.61-53.49,5.63-3.38,16.13-8.89,19.31-9.71l1.55,2.6c-3.17.82-13.67,6.32-19.3,9.7C272.64,193.63,233.75,218.88,221.6,228.81Z"/><path class="cls-13" d="M315.77,169.61c-3.18.83-13.67,6.34-19.31,9.71l-1.89,1.15L293,177.88l1.89-1.15c5.64-3.38,16.14-8.89,19.31-9.71Z"/><path class="cls-7" d="M313.81,171.47a6.85,6.85,0,0,1-.38-5.67,9.63,9.63,0,0,1,5-5,18.22,18.22,0,0,1,10.12-1.64,23.34,23.34,0,0,1,9.12,3.22c-.45,0-.88.1-1.31.17l-.52.09a10.25,10.25,0,0,0-7.42,4.76c-1.08,1.79-1.9,3.74-3.37,5.3a7.33,7.33,0,0,1-1.18,1A6.84,6.84,0,0,1,313.81,171.47Z"/><path class="cls-5" d="M33.7,35.4l20.75,39a2.26,2.26,0,0,1-1,3.07l-5.84,3.11a2.25,2.25,0,0,1-3.07-.93L23.84,40.66a2.27,2.27,0,0,1,.94-3.08l5.84-3.11A2.27,2.27,0,0,1,33.7,35.4Z"/><path class="cls-4" d="M24.78,37.58a2.28,2.28,0,0,0-.94,3.08l20.75,39a2.27,2.27,0,0,0,3.07.94L50.58,79,27.7,36Z"/><path class="cls-5" d="M22.8,26.83h0a2.37,2.37,0,0,0-1.24,2.39L21.77,31a12.18,12.18,0,0,0,1.35,4.27l1.42,2.67,3.25-1.73L31,34.46l-1.42-2.67a12.29,12.29,0,0,0-2.79-3.5l-1.34-1.16A2.4,2.4,0,0,0,22.8,26.83Z"/><path class="cls-4" d="M24.84,26.74a2.08,2.08,0,0,0,0,.75L25,29.25a12.12,12.12,0,0,0,1.35,4.27l1.42,2.66-3.25,1.74-1.42-2.67A12.12,12.12,0,0,1,21.77,31l-.21-1.76a2.38,2.38,0,0,1,1.23-2.39h0A2.36,2.36,0,0,1,24.84,26.74Z"/><rect class="cls-7" x="24.23" y="38.87" width="11.17" height="2.27" transform="translate(-15.31 18.71) rotate(-28.04)"/><rect class="cls-7" x="26.41" y="42.96" width="11.17" height="2.27" transform="translate(-16.97 20.22) rotate(-28.04)"/><path class="cls-7" d="M41.35,55.65c2,3.77,2.53,7.43,1.15,8.16s-4.13-1.73-6.14-5.51-2.52-7.43-1.14-8.16S39.34,51.87,41.35,55.65Z"/><rect class="cls-7" x="40.54" y="69.5" width="11.17" height="2.27" transform="translate(-27.79 29.98) rotate(-28.04)"/><rect class="cls-7" x="42.72" y="73.58" width="11.17" height="2.27" transform="translate(-29.46 31.48) rotate(-28.04)"/><path class="cls-19" d="M219.6,196l-29.32,33a2.28,2.28,0,0,1-3.21.19l-4.94-4.4a2.27,2.27,0,0,1-.2-3.21l29.33-33a2.28,2.28,0,0,1,3.21-.19l4.95,4.4A2.27,2.27,0,0,1,219.6,196Z"/><path class="cls-20" d="M214.47,188.36a2.29,2.29,0,0,0-3.22.19l-29.31,33a2.27,2.27,0,0,0,.18,3.21l2.48,2.2,32.34-36.39Z"/><path class="cls-19" d="M223.86,182.78h0a2.37,2.37,0,0,0-2.67-.34l-1.58.81a12.46,12.46,0,0,0-3.54,2.75l-2,2.26,2.74,2.45,2.75,2.44,2-2.26a12.37,12.37,0,0,0,2.32-3.84l.62-1.66A2.37,2.37,0,0,0,223.86,182.78Z"/><path class="cls-20" d="M224.65,184.66a2.25,2.25,0,0,0-.71.22l-1.58.82a12.11,12.11,0,0,0-3.53,2.75l-2,2.26-2.75-2.45,2-2.26a12.32,12.32,0,0,1,3.54-2.75l1.58-.81a2.38,2.38,0,0,1,2.67.33h0A2.38,2.38,0,0,1,224.65,184.66Z"/><rect class="cls-7" x="212.81" y="188.35" width="2.27" height="11.17" transform="translate(-73.14 225.02) rotate(-48.37)"/><rect class="cls-7" x="209.74" y="191.81" width="2.27" height="11.17" transform="translate(-76.76 223.88) rotate(-48.37)"/><path class="cls-7" d="M203.28,210.18c-2.84,3.2-6.09,4.95-7.26,3.91s.2-4.46,3-7.66,6.09-5,7.25-3.91S206.12,207,203.28,210.18Z"/><rect class="cls-7" x="189.76" y="214.28" width="2.27" height="11.17" transform="translate(-100.26 216.48) rotate(-48.37)"/><rect class="cls-7" x="186.68" y="217.75" width="2.27" height="11.17" transform="translate(-103.88 215.34) rotate(-48.37)"/><path class="cls-9" d="M198.67,176.34l-42.42,12.2a2.26,2.26,0,0,1-2.81-1.56l-1.83-6.36a2.27,2.27,0,0,1,1.55-2.81l42.42-12.2a2.27,2.27,0,0,1,2.82,1.55l1.83,6.36A2.28,2.28,0,0,1,198.67,176.34Z"/><path class="cls-8" d="M198.39,167.16a2.26,2.26,0,0,0-2.81-1.55l-42.41,12.2a2.27,2.27,0,0,0-1.56,2.81l.92,3.18,46.78-13.46Z"/><path class="cls-9" d="M209.32,167.46h0a2.39,2.39,0,0,0-2.08-1.71l-1.76-.15A12,12,0,0,0,201,166l-2.91.83,1,3.54,1,3.53,2.91-.83a12.3,12.3,0,0,0,4-2l1.41-1.07A2.39,2.39,0,0,0,209.32,167.46Z"/><path class="cls-8" d="M209,169.47a2.39,2.39,0,0,0-.72-.19l-1.77-.15a12.15,12.15,0,0,0-4.45.44l-2.91.83-1-3.54L201,166a12.15,12.15,0,0,1,4.45-.44l1.77.16a2.39,2.39,0,0,1,2.08,1.71h0A2.29,2.29,0,0,1,209,169.47Z"/><rect class="cls-7" x="193.84" y="166.01" width="2.27" height="11.17" transform="translate(-39.84 60.6) rotate(-16.05)"/><rect class="cls-7" x="189.39" y="167.29" width="2.27" height="11.17" transform="translate(-40.37 59.42) rotate(-16.05)"/><path class="cls-7" d="M177.28,179.62c-4.11,1.19-7.79.93-8.23-.57s2.55-3.68,6.66-4.86,7.8-.92,8.23.58S181.39,178.44,177.28,179.62Z"/><rect class="cls-7" x="160.5" y="175.6" width="2.27" height="11.17" transform="translate(-43.79 51.75) rotate(-16.05)"/><rect class="cls-7" x="156.05" y="176.88" width="2.27" height="11.17" transform="translate(-44.32 50.57) rotate(-16.05)"/></g></g></g></svg>