<svg width="236" height="327" viewBox="0 0 236 327" fill="none" xmlns="http://www.w3.org/2000/svg">
<g filter="url(#filter0_d)">
<path d="M9 15.066C6.23857 15.066 4 17.3046 4 20.066V314C4 316.761 6.23858 319 9 319H227C229.761 319 232 316.761 232 314V158.393V20.066C232 17.3046 229.761 15.066 227 15.066H224.843L224.279 14.5048C222.328 12.5659 219.178 12.5659 217.228 14.5048L216.664 15.066H9Z" fill="#020205"/>
<path d="M9 15.066C6.23857 15.066 4 17.3046 4 20.066V314C4 316.761 6.23858 319 9 319H227C229.761 319 232 316.761 232 314V158.393V20.066C232 17.3046 229.761 15.066 227 15.066H224.843L224.279 14.5048C222.328 12.5659 219.178 12.5659 217.228 14.5048L216.664 15.066H9Z" fill="url(#paint0_linear)"/>
<path d="M9 15.066C6.23857 15.066 4 17.3046 4 20.066V314C4 316.761 6.23858 319 9 319H227C229.761 319 232 316.761 232 314V158.393V20.066C232 17.3046 229.761 15.066 227 15.066H224.843L224.279 14.5048C222.328 12.5659 219.178 12.5659 217.228 14.5048L216.664 15.066H9Z" fill="url(#paint1_linear)"/>
</g>
<defs>
<filter id="filter0_d" x="0" y="13.0506" width="236" height="313.949" filterUnits="userSpaceOnUse" color-interpolation-filters="sRGB">
<feFlood flood-opacity="0" result="BackgroundImageFix"/>
<feColorMatrix in="SourceAlpha" type="matrix" values="0 0 0 0 0 0 0 0 0 0 0 0 0 0 0 0 0 0 127 0"/>
<feOffset dy="4"/>
<feGaussianBlur stdDeviation="2"/>
<feColorMatrix type="matrix" values="0 0 0 0 0 0 0 0 0 0 0 0 0 0 0 0 0 0 0.25 0"/>
<feBlend mode="normal" in2="BackgroundImageFix" result="effect1_dropShadow"/>
<feBlend mode="normal" in="SourceGraphic" in2="effect1_dropShadow" result="shape"/>
</filter>
<linearGradient id="paint0_linear" x1="118" y1="11" x2="118" y2="319" gradientUnits="userSpaceOnUse">
<stop stop-color="#1D1F57"/>
<stop offset="1" stop-color="#72749F" stop-opacity="0"/>
</linearGradient>
<linearGradient id="paint1_linear" x1="118" y1="11" x2="118" y2="319" gradientUnits="userSpaceOnUse">
<stop offset="0.0132013" stop-color="#2F2CA4"/>
<stop offset="1" stop-color="#111133" stop-opacity="0"/>
</linearGradient>
</defs>
</svg>
