<svg width="304" height="181" viewBox="0 0 304 181" fill="none" xmlns="http://www.w3.org/2000/svg">
<g style="mix-blend-mode:multiply">
<g style="mix-blend-mode:multiply">
<path d="M30.9 9.91002C30.6993 10.3527 30.4132 10.7513 30.058 11.0831C29.7028 11.4148 29.2856 11.6731 28.8303 11.8432C28.375 12.0132 27.8906 12.0916 27.4049 12.0739C26.9192 12.0562 26.4417 11.9428 26 11.74L17.53 7.89002C17.4644 7.86178 17.4049 7.82089 17.3551 7.76968C17.3052 7.71847 17.2659 7.65794 17.2394 7.59154C17.213 7.52515 17.1999 7.4542 17.2008 7.38273C17.2018 7.31126 17.2168 7.24068 17.245 7.17502C17.2733 7.10936 17.3142 7.0499 17.3654 7.00004C17.4166 6.95018 17.4771 6.9109 17.5435 6.88444C17.6099 6.85797 17.6809 6.84484 17.7523 6.8458C17.8238 6.84676 17.8944 6.86178 17.96 6.89002L26.43 10.75C27.0425 10.9467 27.7057 10.913 28.2951 10.6552C28.8844 10.3974 29.3594 9.93331 29.6307 9.35008C29.9021 8.76685 29.9512 8.1046 29.7688 7.48774C29.5863 6.87088 29.185 6.34185 28.64 6.00002L18.85 1.54002C18.6288 1.43956 18.3899 1.38366 18.147 1.37553C17.9041 1.36739 17.662 1.40718 17.4345 1.49261C16.975 1.66514 16.6029 2.01313 16.4 2.46002C16.1971 2.90691 16.1801 3.41609 16.3526 3.87556C16.5251 4.33502 16.8731 4.70713 17.32 4.91002L25.41 8.58002C25.6753 8.69937 25.977 8.70847 26.2489 8.60532C26.5209 8.50218 26.7407 8.29523 26.86 8.03002C26.9794 7.7648 26.9885 7.46304 26.8853 7.19111C26.7822 6.91918 26.5752 6.69937 26.31 6.58002L20.31 3.86002C20.184 3.803 20.0859 3.69827 20.0371 3.56887C19.9884 3.43947 19.993 3.29599 20.05 3.17002C20.1071 3.04404 20.2118 2.94587 20.3412 2.89711C20.4706 2.84835 20.6141 2.853 20.74 2.91002L26.74 5.64002C27.0118 5.74274 27.2596 5.89995 27.4683 6.102C27.6771 6.30405 27.8423 6.54667 27.9538 6.81492C28.0653 7.08318 28.1207 7.3714 28.1167 7.66187C28.1127 7.95235 28.0493 8.23893 27.9304 8.504C27.8115 8.76907 27.6397 9.00702 27.4255 9.20322C27.2112 9.39942 26.9591 9.54972 26.6846 9.64489C26.4102 9.74006 26.1191 9.77807 25.8294 9.7566C25.5397 9.73512 25.2575 9.65461 25 9.52002L16.91 5.84002C16.2138 5.52309 15.6721 4.94257 15.4039 4.22618C15.1357 3.50979 15.1631 2.71621 15.48 2.02002C15.797 1.32383 16.3775 0.782047 17.0939 0.51387C17.8103 0.245693 18.6038 0.273085 19.3 0.590019L29.07 5.00002C29.5148 5.1996 29.9155 5.48557 30.2489 5.84132C30.5822 6.19707 30.8416 6.6155 31.0118 7.07233C31.1821 7.52915 31.2599 8.01525 31.2407 8.50239C31.2215 8.98953 31.1057 9.46801 30.9 9.91002V9.91002Z" fill="#00C4D8"/>
</g>
</g>
<g style="mix-blend-mode:multiply">
<g style="mix-blend-mode:multiply">
<path d="M17.59 83.69L18.18 83.41C20.13 82.41 21.18 81.13 21 79.88C20.84 78.36 19 77.25 16.33 76.76C16.59 74.02 16 71.99 14.58 71.42C13.16 70.85 11.34 71.93 9.63999 74.09C7.32999 72.58 5.25998 72.15 4.09998 73.09C3.09998 73.9 3.00999 75.5 3.71999 77.59C3.78999 77.79 3.86999 77.99 3.94999 78.2C1.69999 79.2 0.379985 80.61 0.529985 82.03C0.649985 83.1 1.52999 83.97 3.04999 84.56C3.74779 84.8281 4.47173 85.0225 5.20999 85.14C4.94999 87.89 5.52999 89.93 6.94999 90.49C8.36999 91.05 10.2 89.99 11.95 87.81C12.5771 88.2333 13.2476 88.5886 13.95 88.87C15.43 89.47 16.7 89.47 17.52 88.77C18.53 87.9 18.51 86 17.59 83.69ZM18.14 78.31C19.27 78.76 19.94 79.31 20.01 79.99C20.1 80.79 19.26 81.71 17.71 82.52C17.54 82.61 17.37 82.7 17.18 82.78C16.7417 81.873 16.23 81.0035 15.65 80.18C15.8824 79.392 16.0661 78.5905 16.2 77.78C16.8623 77.8933 17.512 78.0708 18.14 78.31V78.31ZM11.14 84.31C10.53 84.38 9.94999 84.42 9.38999 84.43C8.99999 84.03 8.59999 83.61 8.20999 83.15C7.81999 82.69 7.35999 82.15 6.98999 81.58C7.16999 80.98 7.38999 80.35 7.64999 79.71C7.90999 79.07 8.16999 78.47 8.45999 77.9C9.07999 77.78 9.72998 77.68 10.46 77.61C11.19 77.54 11.64 77.51 12.2 77.49C12.6 77.89 12.99 78.32 13.39 78.78C13.79 79.24 14.24 79.78 14.61 80.34C14.42 80.95 14.2 81.57 13.95 82.21C13.7 82.85 13.42 83.45 13.14 84.02C12.45 84.16 11.8 84.26 11.13 84.33L11.14 84.31ZM12.5 85.14C12.23 85.61 11.95 86.04 11.68 86.45C11.25 86.13 10.82 85.77 10.38 85.38L11.24 85.31L12.5 85.14ZM8.01999 84.44C7.42999 84.44 6.87998 84.38 6.34998 84.32C6.41998 83.84 6.52999 83.32 6.64999 82.81C6.90999 83.14 7.16999 83.47 7.44999 83.81C7.72999 84.15 7.81999 84.25 7.99999 84.46L8.01999 84.44ZM6.27998 80.53C5.91698 79.9641 5.58321 79.38 5.27998 78.78C5.91234 78.5463 6.55657 78.346 7.20999 78.18C7.03999 78.56 6.86999 78.94 6.70999 79.34C6.54999 79.74 6.40999 80.16 6.26999 80.55L6.27998 80.53ZM9.05999 76.78C9.32999 76.32 9.59999 75.88 9.87999 75.48C10.3 75.79 10.73 76.15 11.17 76.54C10.89 76.54 10.6 76.54 10.31 76.62C10.02 76.7 9.45998 76.74 9.04998 76.8L9.05999 76.78ZM13.54 77.49C14.0985 77.4979 14.6561 77.538 15.21 77.61C15.13 78.09 15.03 78.61 14.9 79.11C14.65 78.79 14.39 78.46 14.11 78.11L13.54 77.49ZM15.28 81.4C15.6466 81.9637 15.9805 82.548 16.28 83.15C15.6524 83.3851 15.0113 83.5822 14.36 83.74C14.53 83.37 14.7 82.98 14.86 82.58C15.02 82.18 15.13 81.81 15.27 81.42L15.28 81.4ZM14.22 72.33C15.1 72.68 15.53 74.33 15.33 76.59C14.413 76.4975 13.4915 76.4574 12.57 76.47C11.9115 75.824 11.2135 75.2195 10.48 74.66C11.91 72.87 13.34 72 14.21 72.35L14.22 72.33ZM4.75998 73.88C5.23998 73.47 6.13999 73.5 7.26999 73.95C7.89025 74.2267 8.4829 74.5615 9.03999 74.95C8.58082 75.6085 8.16011 76.2929 7.77998 77C6.79304 77.2001 5.82338 77.4777 4.87999 77.83C4.79999 77.64 4.72998 77.46 4.66998 77.28C4.10998 75.67 4.12999 74.42 4.74999 73.9L4.75998 73.88ZM1.51999 82C1.42999 81.13 2.51999 80.08 4.35999 79.21C4.80322 80.1122 5.31122 80.9811 5.87999 81.81C5.65101 82.6022 5.46738 83.4069 5.32999 84.22C3.05999 83.76 1.62999 82.91 1.51999 82ZM7.31999 89.65C6.44999 89.3 6.00999 87.65 6.21999 85.37C7.13594 85.4763 8.0581 85.5197 8.97999 85.5C9.63592 86.1488 10.3341 86.7535 11.07 87.31C9.62999 89.09 8.19999 90 7.31999 89.62V89.65ZM16.79 88.09C16.07 88.7 14.44 88.33 12.5 87.09C12.9629 86.4063 13.3837 85.695 13.76 84.96C14.7427 84.7558 15.7087 84.4784 16.65 84.13C17.42 86 17.46 87.49 16.79 88.06V88.09Z" fill="#00C4D8"/>
</g>
<g style="mix-blend-mode:multiply">
<path d="M11.49 79.17C11.1316 79.027 10.7389 78.9935 10.3615 79.0738C9.98408 79.1541 9.63898 79.3446 9.36988 79.6211C9.10077 79.8976 8.91974 80.2478 8.84971 80.6272C8.77968 81.0066 8.82379 81.3983 8.97646 81.7527C9.12913 82.107 9.38349 82.4081 9.70736 82.6179C10.0312 82.8276 10.41 82.9366 10.7958 82.9309C11.1816 82.9253 11.5571 82.8053 11.8747 82.5862C12.1923 82.3671 12.4377 82.0586 12.58 81.7C12.7704 81.2199 12.7625 80.6839 12.5582 80.2096C12.3538 79.7353 11.9697 79.3614 11.49 79.17V79.17Z" fill="#00C4D8"/>
</g>
</g>
<g style="mix-blend-mode:multiply">
<g style="mix-blend-mode:multiply">
<path d="M288 165.85C287.643 167.069 287.727 168.375 288.237 169.538C288.747 170.701 289.651 171.647 290.79 172.21L290.04 174.78C289.448 174.798 288.875 174.991 288.393 175.335C287.911 175.678 287.541 176.157 287.33 176.71L293.03 178.4C293.153 177.821 293.101 177.219 292.882 176.669C292.664 176.119 292.287 175.646 291.8 175.31L292.56 172.74C293.824 172.886 295.1 172.581 296.161 171.878C297.222 171.176 298.001 170.121 298.36 168.9L300.36 162.08L290.06 159L288 165.85Z" fill="#00C4D8"/>
</g>
<g style="mix-blend-mode:multiply">
<path d="M293.49 179L286.67 177C286.534 176.975 286.393 177.002 286.275 177.075C286.158 177.148 286.071 177.262 286.033 177.395C285.994 177.528 286.006 177.671 286.067 177.795C286.127 177.92 286.232 178.018 286.36 178.07L293.17 180.07C293.24 180.091 293.314 180.098 293.387 180.091C293.46 180.083 293.531 180.061 293.595 180.025C293.659 179.99 293.716 179.942 293.762 179.885C293.807 179.827 293.84 179.761 293.86 179.69C293.901 179.549 293.885 179.399 293.816 179.27C293.746 179.141 293.63 179.044 293.49 179V179Z" fill="#00C4D8"/>
</g>
<g style="mix-blend-mode:multiply">
<path d="M284.7 161.9C284.473 162.66 284.555 163.479 284.93 164.178C285.305 164.877 285.941 165.399 286.7 165.63L287.3 165.81L287.63 164.66L287.04 164.49C286.812 164.424 286.598 164.314 286.412 164.166C286.226 164.018 286.071 163.835 285.956 163.627C285.841 163.419 285.768 163.19 285.741 162.954C285.714 162.718 285.734 162.478 285.8 162.25C285.866 162.021 285.976 161.808 286.124 161.622C286.272 161.436 286.455 161.281 286.663 161.166C286.871 161.051 287.1 160.978 287.336 160.951C287.572 160.924 287.812 160.944 288.04 161.01L288.64 161.19L288.98 160.05L288.38 159.87C287.623 159.659 286.813 159.753 286.125 160.133C285.437 160.513 284.925 161.147 284.7 161.9Z" fill="#00C4D8"/>
</g>
<g style="mix-blend-mode:multiply">
<path d="M301.32 163.67L300.73 163.5L300.39 164.64L300.98 164.82C301.223 164.872 301.452 164.973 301.654 165.118C301.856 165.262 302.026 165.447 302.154 165.66C302.281 165.873 302.364 166.11 302.396 166.356C302.428 166.602 302.409 166.853 302.34 167.091C302.272 167.33 302.154 167.552 301.996 167.743C301.838 167.934 301.642 168.091 301.421 168.204C301.199 168.316 300.957 168.382 300.709 168.397C300.462 168.412 300.213 168.375 299.98 168.29L299.38 168.12L299.05 169.26L299.64 169.43C300.404 169.655 301.226 169.568 301.925 169.188C302.625 168.807 303.145 168.164 303.37 167.4C303.595 166.636 303.508 165.814 303.128 165.115C302.747 164.415 302.104 163.895 301.34 163.67H301.32Z" fill="#00C4D8"/>
</g>
</g>
<g style="mix-blend-mode:multiply">
<g style="mix-blend-mode:multiply">
<path d="M291.08 53.51L289.13 50.1L284 53L285.95 56.42C285.433 57.4508 285.261 58.6207 285.461 59.7566C285.66 60.8924 286.22 61.9339 287.057 62.7269C287.895 63.5199 288.965 64.0223 290.11 64.1597C291.255 64.2971 292.414 64.0622 293.415 63.4898C294.416 62.9175 295.207 62.038 295.669 60.9815C296.132 59.9251 296.242 58.7479 295.983 57.624C295.725 56.5001 295.111 55.4893 294.233 54.7412C293.356 53.9931 292.261 53.5473 291.11 53.47L291.08 53.51ZM292.58 62.12C291.718 62.6119 290.696 62.7417 289.738 62.4812C288.78 62.2206 287.964 61.5909 287.47 60.73L294 57C294.247 57.4285 294.406 57.9018 294.468 58.3923C294.53 58.8828 294.493 59.3807 294.361 59.8571C294.229 60.3335 294.004 60.7789 293.698 61.1674C293.392 61.5559 293.012 61.8797 292.58 62.12V62.12Z" fill="#00C4D8"/>
</g>
<g style="mix-blend-mode:multiply">
<path d="M283.54 52.17L288.6 49.28C288.833 49.1352 289.001 48.9058 289.068 48.64C289.135 48.3741 289.097 48.0925 288.961 47.8543C288.825 47.6161 288.602 47.4399 288.339 47.3626C288.076 47.2853 287.793 47.3131 287.55 47.44L282.49 50.32C282.245 50.4592 282.065 50.6902 281.99 50.9622C281.915 51.2341 281.951 51.5247 282.09 51.77C282.229 52.0153 282.46 52.1953 282.732 52.2703C283.004 52.3453 283.295 52.3092 283.54 52.17V52.17Z" fill="#00C4D8"/>
</g>
</g>
<g style="mix-blend-mode:multiply">
<g style="mix-blend-mode:multiply">
<path d="M189.32 21.41C189.964 20.6794 190.319 19.7389 190.319 18.765C190.319 17.7911 189.964 16.8506 189.32 16.12C188.923 15.6339 188.416 15.2498 187.84 15L187.56 13.26C187.483 12.7718 187.244 12.3238 186.881 11.9882C186.518 11.6526 186.053 11.4489 185.56 11.41L178.81 11C178.322 10.965 177.835 11.0948 177.429 11.3685C177.023 11.6422 176.721 12.0441 176.57 12.51L176 14.24C175.385 14.4025 174.818 14.7092 174.346 15.1347C173.873 15.5602 173.509 16.0921 173.283 16.6865C173.057 17.2809 172.976 17.9206 173.047 18.5525C173.118 19.1844 173.338 19.7903 173.69 20.32L176.17 18.18L176.72 18.82C175.754 19.8692 175.173 21.2149 175.071 22.6371C174.97 24.0594 175.353 25.4741 176.16 26.65L174.99 27.65C174.919 27.7104 174.86 27.7844 174.818 27.8678C174.776 27.9511 174.751 28.0421 174.744 28.1353C174.738 28.2284 174.75 28.322 174.78 28.4104C174.81 28.4988 174.858 28.5803 174.92 28.65C174.98 28.7225 175.053 28.7821 175.137 28.8251C175.22 28.8681 175.311 28.8937 175.405 28.9003C175.499 28.9068 175.592 28.8942 175.681 28.8632C175.77 28.8322 175.851 28.7835 175.92 28.72L177.09 27.72C178.137 28.6912 179.484 29.2775 180.908 29.3829C182.333 29.4883 183.751 29.1064 184.93 28.3L186.09 29.63C186.211 29.7693 186.382 29.8548 186.566 29.868C186.749 29.8811 186.931 29.8207 187.07 29.7C187.209 29.5793 187.295 29.4083 187.308 29.2245C187.321 29.0407 187.261 28.8593 187.14 28.72L186 27.37C186.975 26.318 187.563 24.9646 187.665 23.5335C187.766 22.1025 187.377 20.6795 186.56 19.5L187.22 18.93L189.32 21.41ZM185.71 22.07L181.63 24.19C181.514 24.2448 181.388 24.2722 181.26 24.27C181.086 24.251 180.924 24.1735 180.8 24.05L177.91 21.05C177.842 20.9856 177.788 20.908 177.751 20.822C177.715 20.7361 177.696 20.6435 177.696 20.55C177.696 20.4565 177.715 20.3639 177.751 20.278C177.788 20.192 177.842 20.1145 177.91 20.05C177.974 19.9822 178.052 19.9283 178.138 19.8914C178.224 19.8545 178.316 19.8355 178.41 19.8355C178.504 19.8355 178.596 19.8545 178.682 19.8914C178.768 19.9283 178.846 19.9822 178.91 20.05L181.44 22.69L185.06 20.82C185.14 20.7768 185.228 20.75 185.318 20.7412C185.408 20.7324 185.5 20.7418 185.586 20.7688C185.673 20.7959 185.753 20.84 185.823 20.8986C185.892 20.9572 185.949 21.0291 185.99 21.11C186.037 21.1909 186.067 21.2804 186.078 21.3733C186.09 21.4661 186.082 21.5603 186.056 21.6501C186.03 21.7399 185.986 21.8234 185.926 21.8956C185.867 21.9678 185.793 22.0271 185.71 22.07V22.07ZM184.12 15.41L186.26 17.88L185.61 18.45C184.764 17.6821 183.728 17.154 182.61 16.92L182.68 16.02C182.694 15.8004 182.621 15.5841 182.477 15.4176C182.333 15.2512 182.129 15.1479 181.91 15.13C181.691 15.1163 181.476 15.1895 181.311 15.3337C181.147 15.478 181.045 15.6815 181.03 15.9L180.96 16.8C179.811 16.8674 178.704 17.2516 177.76 17.91L177.21 17.27L179.68 15.13C178.94 14.4777 177.986 14.1216 177 14.13L177.45 12.78C177.537 12.5088 177.712 12.2747 177.948 12.1151C178.184 11.9555 178.466 11.8798 178.75 11.9L185.48 12.39C185.767 12.411 186.038 12.5279 186.251 12.722C186.463 12.9162 186.604 13.1761 186.65 13.46L186.86 14.79C185.902 14.6586 184.928 14.8789 184.12 15.41V15.41Z" fill="#00C4D8"/>
</g>
<g style="mix-blend-mode:multiply">
<path d="M190.22 13.31C189.72 12.98 189.22 13.74 189.69 14.07C190.329 14.492 190.849 15.0716 191.2 15.753C191.55 16.4343 191.719 17.1944 191.69 17.96C191.69 18.55 192.59 18.62 192.61 18.02C192.65 17.0957 192.451 16.1766 192.033 15.3515C191.614 14.5265 190.99 13.8233 190.22 13.31V13.31Z" fill="#00C4D8"/>
</g>
<g style="mix-blend-mode:multiply">
<path d="M192 12.15C191.5 11.81 191 12.58 191.47 12.91C192.108 13.3311 192.627 13.9092 192.977 14.5886C193.327 15.268 193.497 16.0261 193.47 16.79C193.47 17.39 194.37 17.46 194.39 16.86C194.428 15.936 194.229 15.0176 193.81 14.1929C193.392 13.3681 192.768 12.6647 192 12.15V12.15Z" fill="#00C4D8"/>
</g>
<g style="mix-blend-mode:multiply">
<path d="M173.62 12.12C173.737 12.0696 173.869 12.0676 173.987 12.1145C174.105 12.1614 174.2 12.2533 174.25 12.37C174.3 12.4867 174.302 12.6186 174.255 12.7368C174.209 12.8549 174.117 12.9496 174 13C173.303 13.3216 172.701 13.8188 172.254 14.4429C171.807 15.067 171.53 15.7965 171.45 16.56C171.38 17.15 170.45 17.09 170.52 16.49C170.613 15.5551 170.947 14.6605 171.491 13.8943C172.035 13.128 172.768 12.5165 173.62 12.12V12.12Z" fill="#00C4D8"/>
</g>
<g style="mix-blend-mode:multiply">
<path d="M172 10.71C172.54 10.46 172.95 11.29 172.41 11.54C171.715 11.8637 171.116 12.3618 170.671 12.9856C170.226 13.6094 169.95 14.3379 169.87 15.1C169.8 15.69 168.87 15.63 168.94 15.03C169.035 14.1075 169.367 13.2252 169.903 12.4684C170.439 11.7117 171.161 11.106 172 10.71V10.71Z" fill="#00C4D8"/>
</g>
</g>
<g style="mix-blend-mode:multiply">
<g style="mix-blend-mode:multiply">
<path d="M88.42 14.51L88.75 16.01L84.97 16.84L85.26 18.18L88.68 17.43L89.01 18.92L85.59 19.67L85.89 21.02L89.77 20.16L90.1 21.66L84.35 22.92L82.77 15.76L88.42 14.51Z" fill="#00C4D8"/>
</g>
<g style="mix-blend-mode:multiply">
<path d="M94.33 15.45L94.59 16.62L90.03 17.62L89.77 16.46L94.33 15.45ZM94.82 17.66L95.07 18.83L90.51 19.83L90.26 18.66L94.82 17.66Z" fill="#00C4D8"/>
</g>
<g style="mix-blend-mode:multiply">
<path d="M105.06 14.71L105.83 18.19L104.01 18.59L103.36 15.59C103.349 15.4581 103.31 15.33 103.245 15.2147C103.18 15.0995 103.091 14.9998 102.983 14.9227C102.875 14.8456 102.752 14.7928 102.622 14.7682C102.492 14.7436 102.358 14.7476 102.23 14.78C102.078 14.8205 101.937 14.8921 101.814 14.9903C101.692 15.0884 101.591 15.2111 101.519 15.3503C101.446 15.4895 101.404 15.6423 101.394 15.799C101.383 15.9556 101.406 16.1126 101.46 16.26L102.06 18.98L100.24 19.38L99.59 16.38C99.5795 16.2481 99.5403 16.12 99.4752 16.0047C99.4101 15.8895 99.3206 15.7898 99.213 15.7127C99.1055 15.6356 98.9823 15.5828 98.8523 15.5582C98.7222 15.5336 98.5883 15.5376 98.46 15.57C98.3075 15.6093 98.1648 15.6801 98.0412 15.7778C97.9177 15.8755 97.8159 15.998 97.7424 16.1374C97.669 16.2767 97.6255 16.4299 97.6147 16.5871C97.604 16.7443 97.6262 16.9019 97.68 17.05L98.28 19.78L96.47 20.17L95.25 14.65L97.06 14.25L97.26 15.16C97.3697 14.8062 97.5756 14.4899 97.8546 14.2462C98.1335 14.0026 98.4747 13.8412 98.84 13.78C99.2356 13.6708 99.6559 13.6927 100.038 13.8423C100.42 13.9919 100.744 14.2613 100.96 14.61C101.035 14.2042 101.234 13.8316 101.53 13.5434C101.825 13.2551 102.202 13.0653 102.61 13C102.884 12.9346 103.17 12.9279 103.447 12.9806C103.724 13.0332 103.987 13.1439 104.219 13.3054C104.45 13.4669 104.645 13.6756 104.79 13.9177C104.935 14.1598 105.027 14.4298 105.06 14.71Z" fill="#00C4D8"/>
</g>
<g style="mix-blend-mode:multiply">
<path d="M108.65 13.29C108.49 13.335 108.34 13.4127 108.211 13.5182C108.082 13.6237 107.976 13.7547 107.9 13.9031C107.824 14.0514 107.779 14.2139 107.769 14.3803C107.759 14.5467 107.783 14.7134 107.84 14.87C108.02 15.68 108.59 16.11 109.24 15.96C109.465 15.9258 109.676 15.826 109.845 15.6731C110.014 15.5202 110.134 15.3208 110.19 15.1L111.69 15.57C111.458 16.151 111.049 16.6448 110.522 16.9822C109.996 17.3197 109.376 17.4839 108.751 17.4519C108.126 17.42 107.527 17.1934 107.037 16.804C106.548 16.4145 106.192 15.8817 106.02 15.28C105.912 14.9041 105.885 14.5094 105.941 14.1223C105.998 13.7352 106.136 13.3646 106.347 13.0352C106.558 12.7058 106.837 12.4252 107.165 12.2122C107.493 11.9992 107.863 11.8587 108.25 11.8C108.736 11.6645 109.249 11.6636 109.735 11.7975C110.222 11.9313 110.662 12.1949 111.01 12.56L109.86 13.62C109.703 13.4666 109.51 13.3558 109.298 13.2981C109.086 13.2403 108.863 13.2376 108.65 13.29V13.29Z" fill="#00C4D8"/>
</g>
<g style="mix-blend-mode:multiply">
<path d="M113.14 9.4C113.14 9.18 112.89 9.09 112.59 9.15C112.184 9.29572 111.835 9.56503 111.59 9.92L111.01 9.22C111.411 8.73041 111.958 8.38037 112.57 8.22C113.41 8.03 114.1 8.34 114.25 8.99C114.282 9.54785 114.104 10.0974 113.75 10.53L113.09 11.53L114.85 11.14L115.04 12.01L111.91 12.69L111.75 11.99L112.91 10.12C113.058 9.90891 113.138 9.65779 113.14 9.4V9.4Z" fill="#00C4D8"/>
</g>
</g>
<g style="mix-blend-mode:multiply">
<g style="mix-blend-mode:multiply">
<path d="M48.6 132C47.5195 132.638 46.6089 133.528 45.9456 134.593C45.2823 135.659 44.8859 136.869 44.79 138.12C44.7137 139.374 44.9052 140.63 45.3517 141.804C45.7983 142.978 46.4897 144.044 47.38 144.93C48.4682 145.978 49.7437 146.813 51.14 147.39C54.95 149.03 60.05 149.32 63.54 146.77C64.1309 146.401 64.6223 145.892 64.971 145.289C65.3196 144.686 65.515 144.006 65.54 143.31C65.43 141.72 64 141.42 62.81 140.85C61.7572 140.252 60.9101 139.349 60.38 138.26C59.06 136 57.9 133.46 55.69 132.06C54.2625 131.19 52.5678 130.866 50.92 131.15C50.1009 131.288 49.3143 131.576 48.6 132V132ZM55 147.16C54.8099 147.244 54.605 147.289 54.3973 147.292C54.1896 147.296 53.9833 147.258 53.7905 147.18C53.5977 147.103 53.4222 146.988 53.2745 146.842C53.1267 146.696 53.0096 146.522 52.93 146.33C52.8065 146.043 52.7711 145.725 52.8282 145.418C52.8853 145.11 53.0323 144.827 53.2507 144.603C53.4691 144.379 53.7491 144.225 54.0551 144.16C54.3611 144.096 54.6794 144.123 54.9696 144.24C55.2599 144.356 55.5091 144.556 55.6857 144.814C55.8623 145.072 55.9583 145.377 55.9615 145.69C55.9648 146.002 55.8752 146.309 55.704 146.571C55.5328 146.833 55.2878 147.038 55 147.16V147.16ZM60.61 142.5C60.682 142.718 60.6875 142.953 60.626 143.174C60.5645 143.395 60.4387 143.593 60.2646 143.743C60.0905 143.893 59.8758 143.987 59.6478 144.015C59.4198 144.042 59.1888 144.002 58.984 143.898C58.7791 143.794 58.6097 143.632 58.4972 143.432C58.3847 143.231 58.3341 143.002 58.3519 142.773C58.3697 142.544 58.455 142.326 58.5971 142.146C58.7392 141.965 58.9316 141.831 59.15 141.76C59.4391 141.669 59.7526 141.695 60.0223 141.834C60.292 141.972 60.496 142.212 60.59 142.5H60.61ZM51.32 142.77C51.4435 143.057 51.479 143.375 51.4219 143.682C51.3648 143.99 51.2178 144.273 50.9994 144.497C50.7809 144.721 50.501 144.875 50.195 144.94C49.889 145.004 49.5707 144.977 49.2804 144.86C48.9902 144.744 48.7409 144.544 48.5644 144.286C48.3878 144.028 48.2918 143.723 48.2885 143.41C48.2853 143.098 48.3749 142.791 48.5461 142.529C48.7172 142.267 48.9622 142.062 49.25 141.94C49.6321 141.78 50.062 141.777 50.446 141.933C50.83 142.088 51.137 142.389 51.3 142.77H51.32ZM48 140.83C47.7129 140.953 47.3959 140.987 47.0891 140.93C46.7822 140.872 46.4992 140.725 46.2759 140.507C46.0525 140.289 45.8988 140.01 45.834 139.704C45.7693 139.399 45.7965 139.081 45.9122 138.791C46.0279 138.501 46.227 138.252 46.4842 138.075C46.7413 137.898 47.0452 137.801 47.3574 137.797C47.6695 137.793 47.976 137.881 48.2381 138.05C48.5002 138.22 48.7062 138.463 48.83 138.75C48.994 139.136 48.9988 139.571 48.8434 139.961C48.6879 140.351 48.3848 140.663 48 140.83ZM55.12 135.25C55.2436 135.537 55.279 135.855 55.2219 136.162C55.1648 136.47 55.0178 136.753 54.7994 136.977C54.5809 137.201 54.301 137.355 53.995 137.42C53.689 137.484 53.3707 137.457 53.0804 137.34C52.7902 137.224 52.5409 137.024 52.3644 136.766C52.1878 136.508 52.0918 136.203 52.0885 135.89C52.0853 135.578 52.1749 135.271 52.3461 135.009C52.5172 134.747 52.7622 134.542 53.05 134.42C53.2423 134.336 53.4494 134.29 53.6593 134.286C53.8691 134.283 54.0777 134.32 54.273 134.397C54.4682 134.475 54.6462 134.59 54.7968 134.736C54.9473 134.882 55.0674 135.057 55.15 135.25H55.12ZM50.52 134.43C50.6426 134.717 50.6774 135.034 50.6199 135.341C50.5625 135.648 50.4155 135.931 50.1973 136.154C49.9792 136.378 49.6998 136.531 49.3944 136.596C49.089 136.661 48.7713 136.634 48.4813 136.518C48.1914 136.402 47.9422 136.203 47.7652 135.946C47.5883 135.689 47.4915 135.385 47.4871 135.073C47.4826 134.761 47.5708 134.454 47.7404 134.192C47.91 133.93 48.1535 133.724 48.44 133.6C48.6328 133.514 48.8408 133.468 49.0518 133.463C49.2628 133.458 49.4726 133.496 49.669 133.573C49.8654 133.65 50.0444 133.766 50.1957 133.913C50.347 134.06 50.4674 134.236 50.55 134.43H50.52Z" fill="#00C4D8"/>
</g>
<g style="mix-blend-mode:multiply">
<path d="M38.94 147.94C38.9357 147.96 38.9357 147.98 38.94 148H39C39.0342 148.034 39.075 148.062 39.12 148.08L39.2 148.13L39.28 148.18L39.41 148.24C41.71 149.38 50.91 152.34 56.66 153.97L57.07 154.08L58.49 154.45L59.43 154.66L59.74 154.72L60.58 154.87L61.03 154.93C61.1127 155.159 61.2542 155.361 61.4404 155.517C61.6265 155.674 61.8506 155.778 62.09 155.82C62.1931 155.83 62.2969 155.83 62.4 155.82C62.8243 155.786 63.2435 155.706 63.65 155.58C63.9522 155.52 64.2641 155.527 64.5632 155.601C64.8622 155.676 65.1412 155.815 65.38 156.01L65.47 156.07L65.68 156.24C65.5375 155.595 65.2653 154.986 64.88 154.45C64.4632 153.88 63.8901 153.442 63.23 153.19C62.7758 152.998 62.2665 152.98 61.8 153.14L61.51 153.31C61.22 153.17 60.76 152.98 60.24 152.79C59.37 152.47 58.34 152.14 57.62 151.93C51.17 150.23 39.11 147.36 38.94 147.94Z" fill="#00C4D8"/>
</g>
</g>
</svg>
