<svg xmlns="http://www.w3.org/2000/svg" viewBox="0 0 356.5 267.91"><defs><style>.cls-1{isolation:isolate;}.cls-2{fill:#ffd524;}.cls-3{fill:#ffc32e;}.cls-4{fill:#ffe2b2;}.cls-5{fill:#3d4051;}.cls-6{fill:#ff582a;}.cls-7{fill:#ae1e0b;}.cls-8{fill:#009fda;}.cls-9{fill:#0071b8;}.cls-10{fill:#484d5b;}.cls-11{fill:#cadfef;}.cls-12{fill:#fff;}.cls-13{fill:#8d5115;}.cls-14{fill:#774206;}.cls-15{mix-blend-mode:multiply;}.cls-16{fill:#00c4d8;}.cls-17{fill:#008c41;}.cls-18{fill:#00b255;}</style></defs><title>Asset 3</title><g class="cls-1"><g id="Layer_2" data-name="Layer 2"><g id="OBJECTS"><path class="cls-2" d="M300.66,199.89l43.32-68a4.37,4.37,0,0,1,6-1.34l4.46,2.84a4.37,4.37,0,0,1,1.33,6l-43.32,68-7.54,5.1-7.07,4.79,1.35-8.44Z"/><path class="cls-3" d="M306.58,203.66,352.25,132l2.23,1.42a4.37,4.37,0,0,1,1.33,6l-43.32,68Z"/><polygon class="cls-4" points="300.66 199.89 312.49 207.43 304.95 212.53 297.88 217.32 299.23 208.88 300.66 199.89"/><polygon class="cls-5" points="299.23 208.88 304.95 212.53 297.88 217.32 299.23 208.88"/><path class="cls-6" d="M339.54,138.87l4.44-7a4.37,4.37,0,0,1,6-1.34l4.46,2.84a4.37,4.37,0,0,1,1.33,6l-4.44,7Z"/><rect class="cls-5" x="337.13" y="142.25" width="14.03" height="4.89" transform="translate(556.63 451.65) rotate(-147.5)"/><path class="cls-7" d="M345.46,142.64,352.25,132l2.23,1.42a4.37,4.37,0,0,1,1.33,6l-4.44,7Z"/><path class="cls-8" d="M24.59,74.87l76.48-25.49a4.36,4.36,0,0,1,5.53,2.76l1.67,5a4.36,4.36,0,0,1-2.76,5.52L29,88.18,20,87.39l-8.51-.74L17.81,81Z"/><path class="cls-9" d="M26.8,81.52l80.63-26.87.84,2.51a4.36,4.36,0,0,1-2.76,5.52L29,88.18Z"/><polygon class="cls-4" points="24.59 74.87 29.02 88.18 19.95 87.39 11.44 86.65 17.81 80.95 24.59 74.87"/><polygon class="cls-5" points="17.81 80.95 19.95 87.39 11.44 86.65 17.81 80.95"/><path class="cls-2" d="M93.23,52l7.84-2.61a4.36,4.36,0,0,1,5.53,2.76l1.67,5a4.36,4.36,0,0,1-2.76,5.52L97.67,65.3Z"/><rect class="cls-5" x="86.11" y="56.97" width="14.03" height="4.89" transform="translate(66.21 166.55) rotate(-108.44)"/><path class="cls-3" d="M95.45,58.64l12-4,.84,2.51a4.36,4.36,0,0,1-2.76,5.52L97.67,65.3Z"/><path class="cls-5" d="M177.45,80,123.87,98.29l9.46,27.25A62.13,62.13,0,0,0,186.82,107Z"/><polygon class="cls-5" points="208.34 71.19 160.08 114.88 95.14 110.48 101.9 104.37 105.53 101.07 143.39 66.79 194.35 70.25 199.25 70.58 208.34 71.19"/><polygon class="cls-10" points="199.25 70.58 157.75 108.15 101.9 104.37 105.53 101.07 143.39 66.79 194.35 70.25 199.25 70.58"/><polygon class="cls-2" points="93.08 147.92 90.46 147.68 93.9 109.56 150.9 86.17 151.9 88.61 96.38 111.39 93.08 147.92"/><path class="cls-2" d="M93.16,133.71l-.54-.17c-1.62.61-7.27,3.76-8.39,17.93L96,153.29C99,139.47,94.56,134.8,93.16,133.71Z"/><path class="cls-11" d="M326.87,48.88a6.28,6.28,0,1,1,8.48,2.65A6.27,6.27,0,0,1,326.87,48.88Zm10.21-5.35a5.24,5.24,0,1,0-2.21,7.08A5.25,5.25,0,0,0,337.08,43.53Z"/><rect class="cls-12" x="290.3" y="60.54" width="24.04" height="1.81" transform="translate(216.48 -234.87) rotate(62.36)"/><polygon class="cls-11" points="274.87 91.36 269.86 96.42 275.76 92.44 280.94 88.16 280.05 87.08 274.87 91.36"/><rect class="cls-5" x="270.78" y="68.24" width="65.59" height="4.1" transform="translate(24.82 209.55) rotate(-39.58)"/><path class="cls-12" d="M287.09,89a3.89,3.89,0,1,1,.52-5.47A3.9,3.9,0,0,1,287.09,89Z"/><path class="cls-11" d="M286,87.68a2.22,2.22,0,1,1,.3-3.13A2.22,2.22,0,0,1,286,87.68Z"/><polygon class="cls-11" points="262.44 67.63 255.43 68.87 262.06 66.28 268.53 64.46 268.91 65.81 262.44 67.63"/><rect class="cls-5" x="263.31" y="53.98" width="65.59" height="4.1" transform="translate(-4.11 82.26) rotate(-15.71)"/><rect class="cls-5" x="330.11" y="43.45" width="11.22" height="1.6" transform="translate(17.8 160.82) rotate(-27.65)"/><path class="cls-11" d="M297.14,64.17h0a1.18,1.18,0,0,1,.49-1.6l8.1-4.24a1.18,1.18,0,0,1,1.59.5h0a1.18,1.18,0,0,1-.5,1.6l-8.09,4.23A1.17,1.17,0,0,1,297.14,64.17Z"/><path class="cls-12" d="M330.6,51.83A4.34,4.34,0,1,1,332.43,46,4.35,4.35,0,0,1,330.6,51.83Z"/><path class="cls-11" d="M329.72,50.14a2.43,2.43,0,1,1,1-3.29A2.44,2.44,0,0,1,329.72,50.14Z"/><rect class="cls-12" x="344.7" y="29.09" width="4.66" height="18.46" rx="1.58" transform="translate(220 -286.89) rotate(62.36)"/><path class="cls-11" d="M202.41,242.13s-8.12-19.6-24.14-21.41S131,237.34,77.08,237.34l-10.56,16H202.41Z"/><path class="cls-12" d="M202.41,242.13s1.34-17.17-7.21-21.54c-10.61-5.42-49.87,6.19-96.89-26.45L83.75,222.78S101,233.84,130.83,237C168.93,241,184.58,218.46,202.41,242.13Z"/><path class="cls-11" d="M202.42,242.13s8.12-19.6,24.14-21.41,47.32,16.62,101.19,16.62l10.56,16H202.42Z"/><path class="cls-12" d="M202.41,239.84s3.89-19.61,19.91-21.7,52.41,12.64,62.61,13.74,40.4,2,40.4,2l5.59,8.25s-35-.34-45.63-1.52c-13.1-1.45-41.5-17.83-60.79-15.1S203,242.15,203,242.15Z"/><rect class="cls-13" x="59.97" y="253.35" width="287.57" height="8.01"/><path class="cls-13" d="M212.61,267.91H192.23a10.55,10.55,0,0,1-10.56-10.55h41.5A10.55,10.55,0,0,1,212.61,267.91Z"/><path class="cls-14" d="M210.82,262H194a8.71,8.71,0,0,1-8.7-8.7h0l17.11-13.47,17.11,13.47h0A8.71,8.71,0,0,1,210.82,262Z"/><path class="cls-2" d="M219.52,253.31a8.65,8.65,0,0,1-1.66,5.12l-15.45-12.15L187,258.43a8.72,8.72,0,0,1-1.66-5.12l17.11-13.47Z"/><g class="cls-15"><path class="cls-16" d="M83.9,39.91A3.69,3.69,0,0,1,79,41.74l-8.47-3.85a.52.52,0,1,1,.43-1l8.47,3.86A2.64,2.64,0,0,0,81.64,36l-9.79-4.46a1.85,1.85,0,0,0-1.53,3.37l8.09,3.67a1.09,1.09,0,0,0,.9-2l-6-2.72a.52.52,0,0,1,.43-.95l6,2.73A2.13,2.13,0,1,1,78,39.52l-8.09-3.68a2.88,2.88,0,1,1,2.39-5.25L82.07,35A3.68,3.68,0,0,1,83.9,39.91Z"/></g><g class="cls-15"><path class="cls-16" d="M70.59,113.69l.59-.28c1.95-1,3-2.28,2.82-3.53-.16-1.52-2-2.63-4.67-3.12.26-2.74-.33-4.77-1.75-5.34s-3.24.51-4.94,2.67c-2.31-1.51-4.38-1.94-5.54-1-1,.81-1.09,2.41-.38,4.5.07.2.15.4.23.61-2.25,1-3.57,2.41-3.42,3.83.12,1.07,1,1.94,2.52,2.53a10.72,10.72,0,0,0,2.16.58c-.26,2.75.32,4.79,1.74,5.35s3.25-.5,5-2.68a10.66,10.66,0,0,0,2,1.06c1.48.6,2.75.6,3.57-.1C71.53,117.9,71.51,116,70.59,113.69Zm.55-5.38c1.13.45,1.8,1,1.87,1.68.09.8-.75,1.72-2.3,2.53-.17.09-.34.18-.53.26a18.47,18.47,0,0,0-1.53-2.6,20,20,0,0,0,.55-2.4A10.36,10.36,0,0,1,71.14,108.31Zm-7,6c-.61.07-1.19.11-1.75.12-.39-.4-.79-.82-1.18-1.28s-.85-1-1.22-1.57c.18-.6.4-1.23.66-1.87s.52-1.24.81-1.81c.62-.12,1.27-.22,2-.29s1.18-.1,1.74-.12c.4.4.79.83,1.19,1.29s.85,1,1.22,1.56c-.19.61-.41,1.23-.66,1.87s-.53,1.24-.81,1.81C65.45,114.16,64.8,114.26,64.13,114.33Zm1.36.83c-.27.47-.55.9-.82,1.31-.43-.32-.86-.68-1.3-1.07l.86-.07Zm-4.48-.7c-.59,0-1.14-.06-1.67-.12.07-.48.18-1,.3-1.51.26.33.52.66.8,1S60.82,114.25,61,114.46Zm-1.74-3.91a19.68,19.68,0,0,1-1-1.75,19.21,19.21,0,0,1,1.93-.6c-.17.38-.34.76-.5,1.16S59.41,110.16,59.27,110.55Zm2.78-3.75c.27-.46.54-.9.82-1.3.42.31.85.67,1.29,1.06-.28,0-.57,0-.86.08S62.46,106.74,62.05,106.8Zm4.48.71a14.57,14.57,0,0,1,1.67.12c-.08.48-.18,1-.31,1.5-.25-.32-.51-.65-.79-1Zm1.74,3.91a17.54,17.54,0,0,1,1,1.75,16.64,16.64,0,0,1-1.92.59c.17-.37.34-.76.5-1.16S68.13,111.81,68.27,111.42Zm-1.06-9.07c.88.35,1.31,2,1.11,4.26a24.2,24.2,0,0,0-2.76-.12,22.27,22.27,0,0,0-2.09-1.81C64.91,102.87,66.34,102,67.21,102.35Zm-9.46,1.55c.48-.41,1.38-.38,2.51.07a10.75,10.75,0,0,1,1.77,1A20.82,20.82,0,0,0,60.78,107a19.19,19.19,0,0,0-2.9.83c-.08-.19-.15-.37-.21-.55C57.11,105.67,57.13,104.42,57.75,103.9ZM54.52,112c-.09-.87,1-1.92,2.84-2.79a20.82,20.82,0,0,0,1.52,2.6,21.7,21.7,0,0,0-.55,2.41C56.06,113.76,54.63,112.91,54.52,112Zm5.8,7.65c-.87-.35-1.31-2-1.1-4.28a20.2,20.2,0,0,0,2.76.13,20.89,20.89,0,0,0,2.09,1.81C62.63,119.09,61.2,120,60.32,119.62Zm9.47-1.56c-.72.61-2.35.24-4.29-1a20.29,20.29,0,0,0,1.26-2.13,20.11,20.11,0,0,0,2.89-.83C70.42,116,70.46,117.49,69.79,118.06Z"/><path class="cls-16" d="M64.49,109.17a1.95,1.95,0,1,0,1.09,2.53A1.95,1.95,0,0,0,64.49,109.17Z"/></g><g class="cls-15"><path class="cls-16" d="M341,195.85a5.4,5.4,0,0,0,2.79,6.36l-.75,2.57a3,3,0,0,0-2.71,1.93l5.7,1.69a3,3,0,0,0-1.23-3.09l.76-2.57a5.4,5.4,0,0,0,5.8-3.84l2-6.82L343.06,189Z"/><path class="cls-16" d="M346.49,209l-6.82-2a.56.56,0,0,0-.31,1.07l6.81,2a.55.55,0,0,0,.69-.38A.56.56,0,0,0,346.49,209Z"/><path class="cls-16" d="M337.7,191.9a3,3,0,0,0,2,3.73l.6.18.33-1.15-.59-.17a1.81,1.81,0,1,1,1-3.48l.6.18.34-1.14-.6-.18A3,3,0,0,0,337.7,191.9Z"/><path class="cls-16" d="M354.32,193.67l-.59-.17-.34,1.14.59.18a1.81,1.81,0,1,1-1,3.47l-.6-.17-.33,1.14.59.17a3,3,0,0,0,1.7-5.76Z"/></g><g class="cls-15"><path class="cls-16" d="M344.08,83.51l-1.95-3.41L337,83l1.95,3.42a5.37,5.37,0,1,0,5.16-2.95Zm1.5,8.61a3.75,3.75,0,0,1-5.11-1.39s0,0,0,0L347,87s0,0,0,0A3.73,3.73,0,0,1,345.58,92.12Z"/><path class="cls-16" d="M336.54,82.17l5.06-2.89a1.06,1.06,0,0,0-1.05-1.84l-5.06,2.88a1.06,1.06,0,0,0,1.05,1.85Z"/></g><g class="cls-15"><path class="cls-16" d="M242.32,51.41a4,4,0,0,0,0-5.29A3.93,3.93,0,0,0,240.84,45l-.28-1.74a2.2,2.2,0,0,0-2-1.85L231.81,41a2.19,2.19,0,0,0-2.24,1.51L229,44.24a4,4,0,0,0-2.31,6.08l2.48-2.14.55.64a6.3,6.3,0,0,0-.56,7.83l-1.17,1a.7.7,0,0,0-.07,1,.69.69,0,0,0,1,.07l1.17-1a6.3,6.3,0,0,0,7.84.58l1.16,1.33a.69.69,0,0,0,1.05-.91L239,57.37a6.3,6.3,0,0,0,.56-7.87l.66-.57Zm-3.61.66-4.08,2.12a.83.83,0,0,1-.37.08.77.77,0,0,1-.46-.22l-2.89-3a.69.69,0,0,1,0-1,.69.69,0,0,1,1,0l2.53,2.64,3.62-1.87a.68.68,0,0,1,.93.29A.69.69,0,0,1,238.71,52.07Zm-1.59-6.66,2.14,2.47-.65.57a6.42,6.42,0,0,0-3-1.53l.07-.9a.84.84,0,0,0-.77-.89.83.83,0,0,0-.88.77l-.07.9a6.23,6.23,0,0,0-3.2,1.11l-.55-.64,2.47-2.14a4,4,0,0,0-2.68-1l.45-1.35a1.27,1.27,0,0,1,1.3-.88l6.73.49a1.28,1.28,0,0,1,1.17,1.07l.21,1.33A4,4,0,0,0,237.12,45.41Z"/><path class="cls-16" d="M243.22,43.31c-.5-.33-1,.43-.53.76a4.46,4.46,0,0,1,2,3.89c0,.59.9.66.92.06A5.38,5.38,0,0,0,243.22,43.31Z"/><path class="cls-16" d="M245,42.15c-.5-.34-1,.43-.53.76a4.46,4.46,0,0,1,2,3.88c0,.6.9.67.92.07A5.4,5.4,0,0,0,245,42.15Z"/><path class="cls-16" d="M226.62,42.12A.46.46,0,0,1,227,43a4.43,4.43,0,0,0-2.55,3.56c-.07.59-1,.53-.93-.07A5.41,5.41,0,0,1,226.62,42.12Z"/><path class="cls-16" d="M225,40.71c.54-.25.95.58.41.83a4.44,4.44,0,0,0-2.54,3.56c-.07.59-1,.53-.93-.07A5.39,5.39,0,0,1,225,40.71Z"/></g><g class="cls-15"><path class="cls-16" d="M141.42,44.51l.33,1.5-3.78.83.29,1.34,3.42-.75.33,1.49-3.42.75.3,1.35,3.88-.86.33,1.5-5.75,1.26-1.58-7.16Z"/><path class="cls-16" d="M147.33,45.45l.26,1.17-4.56,1-.26-1.16Zm.49,2.21.25,1.17-4.56,1-.25-1.17Z"/><path class="cls-16" d="M158.06,44.71l.77,3.48-1.82.4-.65-3a.91.91,0,0,0-1.13-.81,1.13,1.13,0,0,0-.77,1.48l.6,2.72-1.82.4-.65-3a.91.91,0,0,0-1.13-.81,1.13,1.13,0,0,0-.78,1.48l.6,2.73-1.81.39-1.22-5.52,1.81-.4.2.91a2,2,0,0,1,1.58-1.38,1.9,1.9,0,0,1,2.12.83A2,2,0,0,1,155.61,43,2,2,0,0,1,158.06,44.71Z"/><path class="cls-16" d="M161.65,43.29a1.21,1.21,0,0,0-.81,1.58c.18.81.75,1.24,1.4,1.09a1.16,1.16,0,0,0,.95-.86l1.5.47a3,3,0,0,1-5.67-.29,2.75,2.75,0,0,1,2.23-3.48,2.78,2.78,0,0,1,2.76.76l-1.15,1.06A1.29,1.29,0,0,0,161.65,43.29Z"/><path class="cls-16" d="M166.14,39.4c0-.22-.25-.31-.55-.25a2.06,2.06,0,0,0-1,.77l-.58-.7a3,3,0,0,1,1.56-1c.84-.19,1.53.12,1.68.77a2.23,2.23,0,0,1-.5,1.54l-.66,1,1.76-.39.19.87-3.13.68-.16-.7,1.16-1.87A1.27,1.27,0,0,0,166.14,39.4Z"/></g><g class="cls-15"><path class="cls-16" d="M101.6,162a7.8,7.8,0,0,0-3.81,6.12,8.85,8.85,0,0,0,2.59,6.81,12.06,12.06,0,0,0,3.76,2.46c3.81,1.64,8.91,1.93,12.4-.62a4.26,4.26,0,0,0,2-3.46c-.11-1.59-1.54-1.89-2.73-2.46a6,6,0,0,1-2.43-2.59c-1.32-2.26-2.48-4.8-4.69-6.2a6.91,6.91,0,0,0-4.77-.91A6.73,6.73,0,0,0,101.6,162ZM108,177.16a1.56,1.56,0,0,1-2.07-.83,1.58,1.58,0,1,1,2.07.83Zm5.61-4.66a1.16,1.16,0,1,1-1.46-.74A1.15,1.15,0,0,1,113.59,172.5Zm-9.29.27a1.58,1.58,0,1,1-2.07-.83A1.57,1.57,0,0,1,104.3,172.77ZM101,170.83a1.58,1.58,0,1,1,.83-2.08A1.59,1.59,0,0,1,101,170.83Zm7.12-5.58a1.58,1.58,0,1,1-2.07-.83A1.59,1.59,0,0,1,108.15,165.25Zm-4.6-.82a1.58,1.58,0,1,1-2.08-.83A1.59,1.59,0,0,1,103.55,164.43Z"/><path class="cls-16" d="M91.94,177.94a.14.14,0,0,0,0,.06v0l.06,0,0,0a.36.36,0,0,0,.12.08l.08.05.08.05.13.06h0c2.3,1.14,11.5,4.1,17.25,5.73h0l.41.11h0l1.42.37.94.21.31.06.84.15.45.06h0a1.38,1.38,0,0,0,1.06.89,1.63,1.63,0,0,0,.31,0,5.76,5.76,0,0,0,1.25-.24,2.09,2.09,0,0,1,1.73.43l.09.06.21.17a4.87,4.87,0,0,0-.8-1.79,3.66,3.66,0,0,0-1.65-1.26,2,2,0,0,0-1.43-.05l-.29.17c-.29-.14-.75-.33-1.27-.52-.87-.32-1.9-.65-2.62-.86C104.17,180.23,92.11,177.36,91.94,177.94Z"/></g><polygon class="cls-12" points="48.81 12.13 46.85 14.33 47.55 17.19 44.85 16 42.34 17.54 42.64 14.61 40.4 12.71 43.27 12.08 44.4 9.36 45.88 11.91 48.81 12.13"/><polygon class="cls-12" points="121.18 136.36 119.21 138.55 119.91 141.42 117.21 140.23 114.7 141.77 115 138.84 112.76 136.93 115.64 136.31 116.76 133.59 118.24 136.13 121.18 136.36"/><polygon class="cls-12" points="200.38 49.65 197.49 50.23 196.33 52.94 194.89 50.37 191.95 50.1 193.95 47.93 193.29 45.06 195.97 46.29 198.5 44.78 198.16 47.71 200.38 49.65"/><polygon class="cls-12" points="354.2 15.93 351.31 16.51 350.15 19.21 348.7 16.65 345.77 16.38 347.77 14.21 347.11 11.34 349.79 12.57 352.32 11.06 351.98 13.99 354.2 15.93"/><polygon class="cls-12" points="324.14 115.24 321.25 115.82 320.09 118.53 318.65 115.96 315.71 115.7 317.71 113.53 317.06 110.66 319.73 111.89 322.26 110.38 321.92 113.3 324.14 115.24"/><polygon class="cls-12" points="356.24 230.83 353.35 231.41 352.19 234.12 350.75 231.55 347.81 231.29 349.81 229.12 349.15 226.25 351.83 227.47 354.36 225.97 354.02 228.89 356.24 230.83"/><polygon class="cls-12" points="24.45 115.95 21.56 116.53 20.4 119.23 18.95 116.67 16.02 116.4 18.01 114.23 17.36 111.36 20.04 112.59 22.57 111.08 22.23 114.01 24.45 115.95"/><path class="cls-6" d="M247.91,96l-5.48.95-4.38-3.43a10.25,10.25,0,0,0-9.29-1.9c-3.84,1.2-8.21,5-10.31,15.53-4.2,21,15.34,24.19,15.34,24.19s18.72,6.44,25-14.06c3.12-10.25,1.08-15.69-1.75-18.56A10.24,10.24,0,0,0,247.91,96Z"/><path class="cls-7" d="M239.66,132.31a21.7,21.7,0,0,1-5.88-.93s-19.53-3.19-15.33-24.19c2.11-10.51,6.47-14.32,10.31-15.52a10.21,10.21,0,0,1,9.29,1.89l1.57,1.23C236,96.2,232,100.15,230,110.08,227.27,123.49,234.25,129.63,239.66,132.31Z"/><path class="cls-5" d="M251.51,89.72a13.22,13.22,0,0,0-12.69,11.56c-.27,2.07,2.91,2.83,3.2.74a10,10,0,0,1,9.6-9C253.72,92.89,253.62,89.62,251.51,89.72Z"/><path class="cls-17" d="M239,85.63c3.12,5.21.72,12.39.72,12.39s-7.46-1.28-10.58-6.49-.72-12.39-.72-12.39S235.84,80.41,239,85.63Z"/><path class="cls-13" d="M292.68,140.47c-3.18.82-13.68,6.33-19.31,9.71-29,17.39-80.14,50.93-78.61,53.49s55.2-26.84,84.17-44.23c5.63-3.38,15.39-9.9,17.65-12.48Z"/><path class="cls-12" d="M278.93,159.44c5.63-3.38,15.39-9.9,17.65-12.48l-3.9-6.49c-3.18.82-13.68,6.33-19.31,9.71l-1.91,1.15,5.56,9.25Z"/><path class="cls-14" d="M200.06,202.26c-3.12,1.31-5,1.86-5.3,1.41-1.54-2.56,49.65-36.11,78.61-53.49,5.63-3.38,16.13-8.89,19.31-9.71l1.56,2.6c-3.18.82-13.68,6.32-19.31,9.7C251.1,167.08,212.22,192.33,200.06,202.26Z"/><path class="cls-11" d="M294.23,143.06c-3.17.83-13.67,6.33-19.31,9.71L273,153.92l-1.56-2.59,1.89-1.15c5.64-3.38,16.14-8.9,19.31-9.71Z"/><path class="cls-5" d="M292.28,144.92a6.81,6.81,0,0,1-.39-5.67,9.63,9.63,0,0,1,5-5A18.32,18.32,0,0,1,307,132.62a23.52,23.52,0,0,1,9.12,3.23c-.45,0-.88.1-1.31.17l-.52.09a10.27,10.27,0,0,0-7.42,4.76c-1.08,1.79-1.9,3.74-3.37,5.3a7.33,7.33,0,0,1-1.18,1A6.83,6.83,0,0,1,292.28,144.92Z"/><path class="cls-3" d="M12.16,8.85l20.75,39A2.26,2.26,0,0,1,32,50.88L26.12,54a2.25,2.25,0,0,1-3.07-.93L2.3,14.11A2.28,2.28,0,0,1,3.24,11L9.08,7.91A2.29,2.29,0,0,1,12.16,8.85Z"/><path class="cls-2" d="M3.24,11a2.28,2.28,0,0,0-.94,3.08l20.75,39a2.27,2.27,0,0,0,3.07.94L29,52.44,6.16,9.47Z"/><path class="cls-3" d="M1.26.28h0A2.37,2.37,0,0,0,0,2.67L.23,4.43A12.39,12.39,0,0,0,1.58,8.7L3,11.37,6.25,9.64,9.49,7.91,8.07,5.24a12.29,12.29,0,0,0-2.79-3.5L3.94.58A2.4,2.4,0,0,0,1.26.28Z"/><path class="cls-2" d="M3.3.19a2.34,2.34,0,0,0,0,.75L3.48,2.7A12.12,12.12,0,0,0,4.83,7L6.25,9.63,3,11.37,1.58,8.7A12.12,12.12,0,0,1,.23,4.43L0,2.67A2.37,2.37,0,0,1,1.26.28h0A2.37,2.37,0,0,1,3.3.19Z"/><rect class="cls-5" x="2.69" y="12.32" width="11.17" height="2.27" transform="translate(-5.35 5.47) rotate(-28.04)"/><rect class="cls-5" x="4.87" y="16.41" width="11.17" height="2.27" transform="translate(-7.02 6.98) rotate(-28.04)"/><path class="cls-5" d="M19.81,29.1c2,3.77,2.53,7.43,1.15,8.16s-4.12-1.73-6.14-5.51-2.52-7.43-1.14-8.16S17.8,25.32,19.81,29.1Z"/><rect class="cls-5" x="19.01" y="42.95" width="11.17" height="2.27" transform="translate(-17.84 16.74) rotate(-28.04)"/><rect class="cls-5" x="21.18" y="47.03" width="11.17" height="2.27" transform="translate(-19.5 18.24) rotate(-28.04)"/><path class="cls-17" d="M198.07,169.42l-29.33,33a2.25,2.25,0,0,1-3.2.18l-4.95-4.39a2.28,2.28,0,0,1-.2-3.21l29.33-33a2.27,2.27,0,0,1,3.21-.19l4.95,4.4A2.28,2.28,0,0,1,198.07,169.42Z"/><path class="cls-18" d="M192.93,161.81a2.29,2.29,0,0,0-3.22.19L160.4,195a2.27,2.27,0,0,0,.19,3.21l2.47,2.2L195.4,164Z"/><path class="cls-17" d="M202.32,156.23h0a2.37,2.37,0,0,0-2.67-.34l-1.58.81a12.24,12.24,0,0,0-3.53,2.75l-2,2.26,2.75,2.44L198,166.6l2-2.26a12.18,12.18,0,0,0,2.32-3.84l.62-1.66A2.36,2.36,0,0,0,202.32,156.23Z"/><path class="cls-18" d="M203.11,158.1a2.27,2.27,0,0,0-.71.23l-1.58.82a12.11,12.11,0,0,0-3.53,2.75l-2,2.25-2.75-2.44,2-2.26a12.14,12.14,0,0,1,3.53-2.75l1.58-.81a2.38,2.38,0,0,1,2.67.33h0A2.34,2.34,0,0,1,203.11,158.1Z"/><rect class="cls-5" x="191.27" y="161.8" width="2.27" height="11.17" transform="translate(-60.52 200.01) rotate(-48.37)"/><rect class="cls-5" x="188.2" y="165.26" width="2.27" height="11.17" transform="translate(-64.14 198.87) rotate(-48.37)"/><path class="cls-5" d="M181.74,183.63c-2.84,3.2-6.09,5-7.25,3.91s.19-4.47,3-7.66,6.09-4.95,7.26-3.91S184.59,180.44,181.74,183.63Z"/><rect class="cls-5" x="168.22" y="187.73" width="2.27" height="11.17" transform="translate(-87.65 191.47) rotate(-48.37)"/><rect class="cls-5" x="165.14" y="191.19" width="2.27" height="11.17" transform="translate(-91.27 190.33) rotate(-48.37)"/><path class="cls-7" d="M177.13,149.79,134.71,162a2.26,2.26,0,0,1-2.81-1.56l-1.82-6.36a2.26,2.26,0,0,1,1.54-2.81L174,139.05a2.29,2.29,0,0,1,2.82,1.56l1.83,6.36A2.27,2.27,0,0,1,177.13,149.79Z"/><path class="cls-6" d="M176.86,140.61a2.28,2.28,0,0,0-2.82-1.55l-42.41,12.2a2.27,2.27,0,0,0-1.56,2.81l.92,3.18,46.79-13.46Z"/><path class="cls-7" d="M187.78,140.91h0a2.39,2.39,0,0,0-2.08-1.71l-1.76-.16a12.44,12.44,0,0,0-4.46.43l-2.91.84,1,3.54,1,3.53,2.9-.84a12.08,12.08,0,0,0,4-2l1.41-1.07A2.38,2.38,0,0,0,187.78,140.91Z"/><path class="cls-6" d="M187.44,142.92a2.39,2.39,0,0,0-.72-.19l-1.77-.15a12.15,12.15,0,0,0-4.45.44l-2.9.83-1-3.54,2.9-.83a12.18,12.18,0,0,1,4.46-.44l1.77.16a2.38,2.38,0,0,1,2.07,1.71h0A2.32,2.32,0,0,1,187.44,142.92Z"/><rect class="cls-5" x="172.31" y="139.45" width="2.27" height="11.17" transform="translate(-33.34 53.61) rotate(-16.05)"/><rect class="cls-5" x="167.85" y="140.74" width="2.27" height="11.17" transform="translate(-33.87 52.43) rotate(-16.05)"/><path class="cls-5" d="M155.74,153.07c-4.11,1.19-7.79.93-8.22-.57s2.55-3.68,6.66-4.86,7.79-.92,8.22.58S159.85,151.89,155.74,153.07Z"/><rect class="cls-5" x="138.96" y="149.05" width="2.27" height="11.17" transform="translate(-37.29 44.76) rotate(-16.05)"/><rect class="cls-5" x="134.51" y="150.33" width="2.27" height="11.17" transform="translate(-37.82 43.58) rotate(-16.05)"/></g></g></g></svg>