<svg width="341" height="226" viewBox="0 0 341 226" fill="none" xmlns="http://www.w3.org/2000/svg">
<path d="M32.81 3.12999L30.85 5.32999L31.55 8.18999L28.85 6.99999L26.34 8.53999L26.64 5.60999L24.4 3.70999L27.27 3.07999L28.4 0.359985L29.88 2.90999L32.81 3.12999Z" fill="white"/>
<path d="M105.18 127.36L103.21 129.55L103.91 132.42L101.21 131.23L98.7 132.77L99 129.84L96.76 127.93L99.64 127.31L100.76 124.59L102.24 127.13L105.18 127.36Z" fill="white"/>
<path d="M184.38 40.65L181.49 41.23L180.33 43.94L178.89 41.37L175.95 41.1L177.95 38.93L177.29 36.06L179.97 37.29L182.5 35.78L182.16 38.71L184.38 40.65Z" fill="white"/>
<path d="M338.2 6.93L335.31 7.51L334.15 10.21L332.7 7.65L329.77 7.38L331.77 5.21L331.11 2.34L333.79 3.57L336.32 2.06L335.98 4.99L338.2 6.93Z" fill="white"/>
<path d="M308.14 106.24L305.25 106.82L304.09 109.53L302.65 106.96L299.71 106.7L301.71 104.53L301.06 101.66L303.73 102.89L306.26 101.38L305.92 104.3L308.14 106.24Z" fill="white"/>
<path d="M340.24 221.83L337.35 222.41L336.19 225.12L334.75 222.55L331.81 222.29L333.81 220.12L333.15 217.25L335.83 218.47L338.36 216.97L338.02 219.89L340.24 221.83Z" fill="white"/>
<path d="M8.45002 106.95L5.56002 107.53L4.40002 110.23L2.95002 107.67L0.0200195 107.4L2.01002 105.23L1.36002 102.36L4.04002 103.59L6.57002 102.08L6.23002 105.01L8.45002 106.95Z" fill="white"/>
</svg>
