<svg width="358" height="218" viewBox="0 0 358 218" fill="none" xmlns="http://www.w3.org/2000/svg">
<path d="M301.66 199.89L344.98 131.89C345.602 130.921 346.581 130.237 347.704 129.986C348.828 129.736 350.005 129.938 350.98 130.55L355.44 133.39C356.407 134.014 357.089 134.993 357.338 136.117C357.587 137.24 357.383 138.416 356.77 139.39L313.45 207.39L305.91 212.49L298.84 217.28L300.19 208.84L301.66 199.89Z" fill="#FFD524"/>
<path d="M307.58 203.66L353.25 132L355.48 133.42C356.447 134.044 357.129 135.023 357.378 136.147C357.627 137.27 357.423 138.446 356.81 139.42L313.49 207.42L307.58 203.66Z" fill="#FFC32E"/>
<path d="M301.66 199.89L313.49 207.43L305.95 212.53L298.88 217.32L300.23 208.88L301.66 199.89Z" fill="#FFE2B2"/>
<path d="M300.23 208.88L305.95 212.53L298.88 217.32L300.23 208.88Z" fill="#3D4051"/>
<path d="M340.54 138.87L344.98 131.87C345.602 130.901 346.581 130.217 347.705 129.967C348.828 129.716 350.005 129.918 350.98 130.53L355.44 133.37C356.407 133.994 357.089 134.973 357.338 136.097C357.587 137.22 357.383 138.396 356.77 139.37L352.33 146.37L340.54 138.87Z" fill="#FF582A"/>
<path d="M337.895 142.999L349.728 150.538L352.356 146.414L340.523 138.875L337.895 142.999Z" fill="#3D4051"/>
<path d="M346.46 142.64L353.25 132L355.48 133.42C356.447 134.044 357.129 135.023 357.378 136.147C357.627 137.27 357.423 138.446 356.81 139.42L352.37 146.42L346.46 142.64Z" fill="#AE1E0B"/>
<path d="M25.59 74.87L102.07 49.38C102.614 49.1967 103.189 49.1227 103.762 49.1624C104.335 49.202 104.895 49.3544 105.409 49.6109C105.922 49.8673 106.38 50.2228 106.757 50.6568C107.133 51.0908 107.419 51.5949 107.6 52.14L109.27 57.14C109.452 57.6836 109.525 58.2578 109.484 58.8296C109.444 59.4014 109.291 59.9596 109.035 60.4723C108.778 60.985 108.423 61.4422 107.99 61.8176C107.557 62.1929 107.054 62.4792 106.51 62.66L30 88.18L21 87.39L12.49 86.65L18.81 81L25.59 74.87Z" fill="#009FDA"/>
<path d="M27.8 81.52L108.43 54.65L109.27 57.16C109.452 57.7036 109.525 58.2778 109.484 58.8496C109.444 59.4214 109.291 59.9796 109.035 60.4923C108.778 61.0051 108.423 61.4622 107.99 61.8376C107.557 62.2129 107.054 62.4992 106.51 62.68L30 88.18L27.8 81.52Z" fill="#0071B8"/>
<path d="M25.59 74.87L30.02 88.18L20.95 87.39L12.44 86.65L18.81 80.95L25.59 74.87Z" fill="#FFE2B2"/>
<path d="M18.81 80.95L20.95 87.39L12.44 86.65L18.81 80.95Z" fill="#3D4051"/>
<path d="M94.23 52L102.07 49.39C102.614 49.2067 103.189 49.1328 103.762 49.1724C104.335 49.212 104.895 49.3644 105.409 49.6209C105.922 49.8773 106.38 50.2328 106.757 50.6668C107.133 51.1008 107.419 51.6049 107.6 52.15L109.27 57.15C109.452 57.6936 109.525 58.2678 109.484 58.8396C109.444 59.4114 109.291 59.9696 109.035 60.4823C108.778 60.9951 108.423 61.4522 107.99 61.8276C107.557 62.2029 107.054 62.4892 106.51 62.67L98.67 65.3L94.23 52Z" fill="#FFD524"/>
<path d="M89.5795 53.5314L94.0173 66.841L98.6563 65.2942L94.2184 51.9846L89.5795 53.5314Z" fill="#3D4051"/>
<path d="M96.45 58.64L108.45 54.64L109.29 57.15C109.472 57.6937 109.545 58.2678 109.504 58.8396C109.464 59.4114 109.311 59.9697 109.055 60.4824C108.798 60.9951 108.443 61.4522 108.01 61.8276C107.577 62.203 107.074 62.4892 106.53 62.67L98.67 65.3L96.45 58.64Z" fill="#FFC32E"/>
<path d="M178.45 80L124.87 98.29L134.33 125.54C144.077 126.908 154.01 125.94 163.309 122.716C172.609 119.493 181.01 114.106 187.82 107L178.45 80Z" fill="#3D4051"/>
<path d="M209.34 71.19L161.08 114.88L96.14 110.48L102.9 104.37L106.53 101.07L144.39 66.79L195.35 70.25L200.25 70.58L209.34 71.19Z" fill="#3D4051"/>
<path d="M200.25 70.58L158.75 108.15L102.9 104.37L106.53 101.07L144.39 66.79L195.35 70.25L200.25 70.58Z" fill="#484D5B"/>
<path d="M94.08 147.92L91.46 147.68L94.9 109.56L151.9 86.17L152.9 88.61L97.38 111.39L94.08 147.92Z" fill="#FFD524"/>
<path d="M94.16 133.71L93.62 133.54C92 134.15 86.35 137.3 85.23 151.47L97 153.29C100 139.47 95.56 134.8 94.16 133.71Z" fill="#FFD524"/>
<path d="M327.87 48.88C327.294 47.7797 327.057 46.5334 327.19 45.2986C327.322 44.0638 327.818 42.8959 328.614 41.9427C329.41 40.9895 330.471 40.2937 331.662 39.9432C332.853 39.5928 334.122 39.6035 335.307 39.9739C336.493 40.3443 337.541 41.0579 338.321 42.0243C339.101 42.9908 339.577 44.1668 339.689 45.4036C339.8 46.6405 339.543 47.8827 338.948 48.9731C338.354 50.0636 337.45 50.9534 336.35 51.53C335.62 51.9144 334.82 52.1509 333.998 52.2257C333.176 52.3005 332.348 52.2123 331.56 51.9661C330.772 51.7199 330.04 51.3206 329.407 50.791C328.774 50.2614 328.252 49.612 327.87 48.88V48.88ZM338.08 43.53C337.598 42.6129 336.855 41.8591 335.945 41.364C335.035 40.8689 333.999 40.6547 332.967 40.7484C331.935 40.8421 330.955 41.2395 330.149 41.8905C329.343 42.5414 328.748 43.4166 328.439 44.4056C328.13 45.3945 328.122 46.4527 328.414 47.4466C328.707 48.4404 329.287 49.3252 330.083 49.9892C330.878 50.6532 331.852 51.0665 332.882 51.177C333.912 51.2875 334.952 51.0902 335.87 50.61C337.101 49.9631 338.025 48.8544 338.439 47.527C338.853 46.1997 338.724 44.7622 338.08 43.53V43.53Z" fill="#CADFEF"/>
<path d="M309.676 71.6829L298.523 50.3863L296.92 51.226L308.072 72.5226L309.676 71.6829Z" fill="white"/>
<path d="M275.87 91.36L270.86 96.42L276.76 92.44L281.94 88.16L281.05 87.08L275.87 91.36Z" fill="#CADFEF"/>
<path d="M328.552 47.8252L277.999 89.6162L280.612 92.7762L331.164 50.9852L328.552 47.8252Z" fill="#3D4051"/>
<path d="M288.09 89C287.497 89.4911 286.772 89.7952 286.006 89.874C285.241 89.9527 284.469 89.8025 283.788 89.4424C283.108 89.0822 282.55 88.5283 282.185 87.8508C281.819 87.1733 281.663 86.4026 281.736 85.6362C281.809 84.8699 282.107 84.1425 282.594 83.5459C283.08 82.9494 283.733 82.5106 284.469 82.285C285.205 82.0595 285.991 82.0575 286.728 82.2791C287.466 82.5007 288.12 82.936 288.61 83.53C289.263 84.3259 289.574 85.3475 289.477 86.3721C289.379 87.3968 288.881 88.3414 288.09 89V89Z" fill="white"/>
<path d="M287 87.68C286.661 87.9587 286.247 88.1308 285.811 88.1744C285.374 88.2181 284.934 88.1314 284.547 87.9253C284.16 87.7191 283.842 87.4028 283.634 87.0163C283.427 86.6298 283.338 86.1904 283.38 85.7536C283.422 85.3169 283.592 84.9023 283.869 84.5623C284.147 84.2222 284.519 83.972 284.938 83.8432C285.358 83.7144 285.806 83.7128 286.226 83.8386C286.647 83.9644 287.02 84.212 287.3 84.55C287.486 84.775 287.626 85.0346 287.712 85.3138C287.798 85.5931 287.828 85.8865 287.8 86.1773C287.772 86.468 287.687 86.7505 287.55 87.0083C287.412 87.2662 287.226 87.4944 287 87.68Z" fill="#CADFEF"/>
<path d="M263.44 67.63L256.43 68.87L263.06 66.28L269.53 64.46L269.91 65.81L263.44 67.63Z" fill="#CADFEF"/>
<path d="M328.12 45.1678L264.98 62.9275L266.09 66.8743L329.23 49.1146L328.12 45.1678Z" fill="#3D4051"/>
<path d="M341.314 40.9072L331.375 46.1141L332.117 47.5314L342.056 42.3245L341.314 40.9072Z" fill="#3D4051"/>
<path d="M298.14 64.17C298.067 64.0328 298.021 63.8826 298.006 63.7278C297.991 63.573 298.007 63.4168 298.052 63.2681C298.098 63.1194 298.172 62.9812 298.271 62.8614C298.371 62.7416 298.492 62.6425 298.63 62.57L306.73 58.33C307.007 58.1858 307.33 58.1575 307.628 58.2512C307.926 58.345 308.175 58.5531 308.32 58.83V58.83C308.393 58.9677 308.438 59.1185 308.452 59.2737C308.467 59.4289 308.45 59.5854 308.403 59.7342C308.357 59.883 308.281 60.021 308.181 60.1405C308.081 60.2599 307.958 60.3583 307.82 60.43L299.73 64.66C299.594 64.7331 299.444 64.7784 299.29 64.7933C299.136 64.8082 298.981 64.7924 298.833 64.7469C298.685 64.7013 298.547 64.6268 298.429 64.5278C298.31 64.4288 298.212 64.3072 298.14 64.17Z" fill="#CADFEF"/>
<path d="M331.6 51.83C330.839 52.2314 329.977 52.3979 329.121 52.3082C328.266 52.2185 327.457 51.8767 326.796 51.3262C326.135 50.7757 325.653 50.0413 325.41 49.2163C325.168 48.3912 325.176 47.5126 325.433 46.6921C325.691 45.8716 326.186 45.146 326.857 44.6076C327.528 44.0692 328.343 43.7422 329.2 43.668C330.057 43.5939 330.916 43.7759 331.669 44.1911C332.422 44.6063 333.035 45.2359 333.43 46C333.953 47.0172 334.053 48.1993 333.711 49.2904C333.368 50.3815 332.61 51.2939 331.6 51.83V51.83Z" fill="white"/>
<path d="M330.72 50.14C330.296 50.366 329.814 50.4612 329.336 50.4137C328.858 50.3661 328.405 50.1778 328.034 49.8727C327.663 49.5676 327.39 49.1593 327.251 48.6994C327.112 48.2395 327.112 47.7487 327.252 47.2889C327.392 46.8292 327.665 46.4212 328.036 46.1166C328.408 45.8119 328.861 45.6242 329.339 45.5773C329.818 45.5303 330.299 45.6261 330.723 45.8527C331.146 46.0792 331.493 46.4263 331.72 46.85C332.021 47.4193 332.085 48.0848 331.898 48.7011C331.711 49.3174 331.287 49.8347 330.72 50.14V50.14Z" fill="#CADFEF"/>
<path d="M356.57 34.6966L355.874 33.3678C355.469 32.5947 354.514 32.2962 353.741 32.7011L340.187 39.799C339.414 40.2038 339.116 41.1586 339.521 41.9316L340.217 43.2604C340.621 44.0335 341.576 44.332 342.349 43.9271L355.903 36.8292C356.676 36.4244 356.975 35.4696 356.57 34.6966Z" fill="white"/>
<path d="M248.91 96L243.43 96.95L239.05 93.52C237.769 92.4785 236.255 91.7619 234.638 91.4311C233.02 91.1003 231.347 91.1651 229.76 91.62C225.92 92.82 221.55 96.62 219.45 107.15C215.25 128.15 234.79 131.34 234.79 131.34C234.79 131.34 253.51 137.78 259.79 117.28C262.91 107.03 260.87 101.59 258.04 98.72C256.852 97.5607 255.401 96.7074 253.811 96.2336C252.22 95.7598 250.538 95.6796 248.91 96V96Z" fill="#FF582A"/>
<path d="M240.66 132.31C238.667 132.272 236.688 131.959 234.78 131.38C234.78 131.38 215.25 128.19 219.45 107.19C221.56 96.68 225.92 92.87 229.76 91.67C231.346 91.2103 233.02 91.1422 234.638 91.4714C236.256 91.8006 237.77 92.5172 239.05 93.56L240.62 94.79C237 96.2 233 100.15 231 110.08C228.27 123.49 235.25 129.63 240.66 132.31Z" fill="#AE1E0B"/>
<path d="M252.51 89.72C249.365 89.8214 246.36 91.0412 244.034 93.1602C241.707 95.2791 240.213 98.1582 239.82 101.28C239.55 103.35 242.73 104.11 243.02 102.02C243.261 99.6123 244.366 97.3734 246.131 95.7185C247.896 94.0635 250.202 93.1048 252.62 93.02C254.72 92.89 254.62 89.62 252.51 89.72Z" fill="#3D4051"/>
<path d="M240 85.63C243.12 90.84 240.72 98.02 240.72 98.02C240.72 98.02 233.26 96.74 230.14 91.53C227.02 86.32 229.42 79.14 229.42 79.14C229.42 79.14 236.84 80.41 240 85.63Z" fill="#008C41"/>
<path d="M293.68 140.47C290.5 141.29 280 146.8 274.37 150.18C245.37 167.57 194.23 201.11 195.76 203.67C197.29 206.23 250.96 176.83 279.93 159.44C285.56 156.06 295.32 149.54 297.58 146.96L293.68 140.47Z" fill="#8D5115"/>
<path d="M279.93 159.44C285.56 156.06 295.32 149.54 297.58 146.96L293.68 140.47C290.5 141.29 280 146.8 274.37 150.18L272.46 151.33L278.02 160.58L279.93 159.44Z" fill="white"/>
<path d="M201.06 202.26C197.94 203.57 196.06 204.12 195.76 203.67C194.22 201.11 245.41 167.56 274.37 150.18C280 146.8 290.5 141.29 293.68 140.47L295.24 143.07C292.06 143.89 281.56 149.39 275.93 152.77C252.1 167.08 213.22 192.33 201.06 202.26Z" fill="#774206"/>
<path d="M295.23 143.06C292.06 143.89 281.56 149.39 275.92 152.77L274 153.92L272.44 151.33L274.33 150.18C279.97 146.8 290.47 141.28 293.64 140.47L295.23 143.06Z" fill="#CADFEF"/>
<path d="M293.28 144.92C292.81 144.059 292.533 143.106 292.465 142.128C292.398 141.149 292.543 140.167 292.89 139.25C293.862 137.01 295.65 135.222 297.89 134.25C301.037 132.757 304.544 132.191 308 132.62C311.231 133.053 314.337 134.153 317.12 135.85C316.67 135.85 316.24 135.95 315.81 136.02L315.29 136.11C313.777 136.303 312.327 136.83 311.043 137.653C309.76 138.477 308.676 139.576 307.87 140.87C306.79 142.66 305.97 144.61 304.5 146.17C304.143 146.544 303.748 146.879 303.32 147.17C302.534 147.746 301.634 148.147 300.68 148.347C299.726 148.546 298.74 148.539 297.789 148.326C296.838 148.113 295.943 147.699 295.166 147.111C294.388 146.524 293.745 145.777 293.28 144.92Z" fill="#3D4051"/>
<path d="M13.16 8.85001L33.91 47.85C34.185 48.3737 34.2437 48.9843 34.0736 49.5508C33.9035 50.1173 33.518 50.5945 33 50.88L27.12 54C26.8579 54.143 26.57 54.2324 26.273 54.263C25.976 54.2935 25.6759 54.2647 25.3902 54.1782C25.1044 54.0916 24.8388 53.949 24.6087 53.7588C24.3786 53.5685 24.1887 53.3344 24.05 53.07L3.30001 14.11C3.15519 13.8446 3.06459 13.553 3.03351 13.2523C3.00242 12.9516 3.03146 12.6476 3.11894 12.3582C3.20641 12.0688 3.35058 11.7997 3.54304 11.5665C3.73551 11.3333 3.97242 11.1408 4.24001 11L10.08 7.91001C10.6138 7.62972 11.2365 7.57122 11.8131 7.7472C12.3898 7.92318 12.8737 8.31945 13.16 8.85001Z" fill="#FFC32E"/>
<path d="M4.23996 11C3.70746 11.2843 3.30945 11.7683 3.13324 12.3456C2.95702 12.923 3.01698 13.5467 3.29996 14.08L24.05 53.08C24.1898 53.3433 24.3801 53.5765 24.6101 53.7663C24.8401 53.956 25.1052 54.0986 25.3902 54.1859C25.6753 54.2732 25.9748 54.3035 26.2716 54.275C26.5684 54.2465 26.8567 54.1599 27.12 54.02L30 52.44L7.15996 9.46997L4.23996 11Z" fill="#FFD524"/>
<path d="M2.25997 0.280016C1.8315 0.502609 1.48123 0.850764 1.25605 1.27789C1.03087 1.70501 0.941528 2.19072 0.999971 2.67002L1.22997 4.43002C1.41687 5.92353 1.87434 7.3705 2.57997 8.70002L3.99997 11.37L7.24997 9.64002L10.49 7.91002L9.06997 5.24002C8.36205 3.91241 7.41637 2.72607 6.27997 1.74002L4.93997 0.580016C4.57471 0.267297 4.12394 0.0715027 3.64609 0.0180116C3.16824 -0.0354795 2.68533 0.0557992 2.25997 0.280016V0.280016Z" fill="#FFC32E"/>
<path d="M4.29997 0.189985C4.25965 0.438359 4.25965 0.691611 4.29997 0.939985L4.47997 2.69999C4.65717 4.20512 5.11509 5.66366 5.82997 6.99999L7.24997 9.62999L3.99997 11.37L2.57997 8.69999C1.86864 7.37287 1.41082 5.92482 1.22997 4.42999L0.999971 2.66999C0.941528 2.19069 1.03087 1.70498 1.25605 1.27786C1.48123 0.850733 1.8315 0.502578 2.25997 0.279985V0.279985C2.5718 0.113875 2.91682 0.0195843 3.26978 0.00401225C3.62275 -0.0115598 3.97473 0.0519811 4.29997 0.189985V0.189985Z" fill="#FFD524"/>
<path d="M13.6746 9.82846L3.81573 15.0793L4.88283 17.0829L14.7417 11.832L13.6746 9.82846Z" fill="#3D4051"/>
<path d="M15.8514 13.9236L5.99249 19.1744L7.05959 21.178L16.9185 15.9271L15.8514 13.9236Z" fill="#3D4051"/>
<path d="M20.81 29.1C22.81 32.87 23.34 36.53 21.96 37.26C20.58 37.99 17.84 35.53 15.82 31.75C13.8 27.97 13.3 24.32 14.68 23.59C16.06 22.86 18.8 25.32 20.81 29.1Z" fill="#3D4051"/>
<path d="M29.9878 40.4613L20.1289 45.7122L21.196 47.7157L31.0549 42.4648L29.9878 40.4613Z" fill="#3D4051"/>
<path d="M32.161 44.5423L22.3021 49.7932L23.3692 51.7967L33.2281 46.5458L32.161 44.5423Z" fill="#3D4051"/>
<path d="M199.07 169.42L169.74 202.42C169.543 202.644 169.303 202.826 169.035 202.957C168.767 203.087 168.475 203.163 168.178 203.18C167.88 203.196 167.582 203.154 167.301 203.054C167.02 202.955 166.761 202.8 166.54 202.6L161.59 198.21C161.139 197.81 160.865 197.248 160.828 196.646C160.79 196.045 160.992 195.453 161.39 195L190.72 162C190.918 161.776 191.158 161.594 191.427 161.463C191.696 161.333 191.987 161.256 192.286 161.239C192.584 161.221 192.883 161.262 193.165 161.36C193.447 161.458 193.707 161.611 193.93 161.81L198.88 166.21C199.329 166.611 199.602 167.174 199.637 167.776C199.673 168.377 199.469 168.968 199.07 169.42Z" fill="#008C41"/>
<path d="M193.93 161.81C193.477 161.411 192.884 161.206 192.281 161.242C191.678 161.277 191.113 161.55 190.71 162L161.4 195C161.201 195.223 161.048 195.483 160.95 195.765C160.852 196.047 160.811 196.346 160.829 196.644C160.846 196.943 160.923 197.234 161.053 197.503C161.184 197.772 161.366 198.012 161.59 198.21L164.06 200.41L196.4 164L193.93 161.81Z" fill="#00B255"/>
<path d="M203.32 156.23C202.962 155.909 202.515 155.705 202.038 155.644C201.561 155.583 201.077 155.669 200.65 155.89L199.07 156.7C197.734 157.392 196.538 158.324 195.54 159.45L193.54 161.71L196.29 164.15L199 166.6L201 164.34C202.004 163.215 202.791 161.913 203.32 160.5L203.94 158.84C204.114 158.393 204.148 157.905 204.037 157.438C203.926 156.972 203.676 156.551 203.32 156.23V156.23Z" fill="#008C41"/>
<path d="M204.11 158.1C203.862 158.137 203.622 158.215 203.4 158.33L201.82 159.15C200.483 159.839 199.286 160.772 198.29 161.9L196.29 164.15L193.54 161.71L195.54 159.45C196.536 158.323 197.733 157.39 199.07 156.7L200.65 155.89C201.076 155.669 201.56 155.583 202.036 155.642C202.513 155.7 202.96 155.902 203.32 156.22V156.22C203.585 156.453 203.794 156.744 203.931 157.069C204.067 157.395 204.129 157.747 204.11 158.1Z" fill="#00B255"/>
<path d="M189.99 162.835L188.482 164.532L196.831 171.952L198.339 170.255L189.99 162.835Z" fill="#3D4051"/>
<path d="M186.916 166.288L185.408 167.985L193.757 175.405L195.265 173.709L186.916 166.288Z" fill="#3D4051"/>
<path d="M182.74 183.63C179.9 186.83 176.65 188.63 175.49 187.54C174.33 186.45 175.68 183.07 178.49 179.88C181.3 176.69 184.58 174.93 185.75 175.97C186.92 177.01 185.59 180.44 182.74 183.63Z" fill="#3D4051"/>
<path d="M166.928 188.75L165.42 190.446L173.769 197.867L175.277 196.17L166.928 188.75Z" fill="#3D4051"/>
<path d="M163.848 192.21L162.34 193.907L170.689 201.327L172.197 199.631L163.848 192.21Z" fill="#3D4051"/>
<path d="M178.13 149.79L135.71 162C135.423 162.084 135.122 162.11 134.825 162.077C134.528 162.043 134.241 161.952 133.979 161.807C133.718 161.662 133.488 161.466 133.303 161.231C133.117 160.997 132.981 160.728 132.9 160.44L131.08 154.08C130.996 153.794 130.969 153.495 131.001 153.199C131.033 152.903 131.123 152.616 131.266 152.355C131.409 152.094 131.602 151.864 131.835 151.677C132.067 151.491 132.334 151.353 132.62 151.27L175 139.05C175.581 138.886 176.203 138.958 176.731 139.25C177.259 139.542 177.65 140.031 177.82 140.61L179.65 146.97C179.821 147.546 179.757 148.165 179.472 148.694C179.187 149.222 178.705 149.617 178.13 149.79V149.79Z" fill="#AE1E0B"/>
<path d="M177.86 140.61C177.691 140.031 177.299 139.543 176.77 139.253C176.242 138.962 175.619 138.893 175.04 139.06L132.63 151.26C132.343 151.342 132.075 151.479 131.841 151.665C131.607 151.851 131.412 152.08 131.267 152.341C131.122 152.602 131.03 152.889 130.996 153.186C130.963 153.483 130.988 153.783 131.07 154.07L131.99 157.25L178.78 143.79L177.86 140.61Z" fill="#FF582A"/>
<path d="M188.78 140.91C188.645 140.449 188.375 140.039 188.004 139.734C187.633 139.429 187.178 139.243 186.7 139.2L184.94 139.04C183.44 138.912 181.928 139.058 180.48 139.47L177.57 140.31L178.57 143.85L179.57 147.38L182.47 146.54C183.916 146.128 185.273 145.45 186.47 144.54L187.88 143.47C188.273 143.186 188.57 142.788 188.731 142.331C188.891 141.873 188.909 141.378 188.78 140.91V140.91Z" fill="#AE1E0B"/>
<path d="M188.44 142.92C188.211 142.819 187.968 142.755 187.72 142.73L185.95 142.58C184.452 142.45 182.943 142.599 181.5 143.02L178.6 143.85L177.6 140.31L180.5 139.48C181.947 139.059 183.459 138.91 184.96 139.04L186.73 139.2C187.207 139.244 187.66 139.43 188.029 139.735C188.398 140.04 188.667 140.45 188.8 140.91C188.897 141.25 188.915 141.608 188.853 141.957C188.791 142.305 188.649 142.635 188.44 142.92Z" fill="#FF582A"/>
<path d="M173.99 139.357L171.808 139.985L174.896 150.719L177.078 150.092L173.99 139.357Z" fill="#3D4051"/>
<path d="M169.53 140.65L167.349 141.278L170.437 152.012L172.618 151.385L169.53 140.65Z" fill="#3D4051"/>
<path d="M156.74 153.07C152.63 154.26 148.95 154 148.52 152.5C148.09 151 151.07 148.82 155.18 147.64C159.29 146.46 162.97 146.72 163.4 148.22C163.83 149.72 160.85 151.89 156.74 153.07Z" fill="#3D4051"/>
<path d="M140.644 148.953L138.462 149.581L141.55 160.316L143.732 159.688L140.644 148.953Z" fill="#3D4051"/>
<path d="M136.191 150.234L134.01 150.861L137.098 161.596L139.279 160.968L136.191 150.234Z" fill="#3D4051"/>
</svg>
