<svg xmlns="http://www.w3.org/2000/svg" xmlns:xlink="http://www.w3.org/1999/xlink" viewBox="0 0 401.93 364.92"><defs><style>.cls-1{isolation:isolate;}.cls-2{fill:url(#linear-gradient);}.cls-3{opacity:0.7;mix-blend-mode:screen;fill:url(#linear-gradient-2);}</style><linearGradient id="linear-gradient" y1="182.46" x2="401.93" y2="182.46" gradientUnits="userSpaceOnUse"><stop offset="0" stop-color="#8ee5b6"/><stop offset="1" stop-color="#00c4d8"/></linearGradient><linearGradient id="linear-gradient-2" x1="220.74" y1="160.73" x2="116.63" y2="279.4" gradientUnits="userSpaceOnUse"><stop offset="0" stop-color="#a7ebeb"/><stop offset="1" stop-color="#a7ebeb" stop-opacity="0"/></linearGradient></defs><title>Asset 2</title><g class="cls-1"><g id="Layer_2" data-name="Layer 2"><g id="OBJECTS"><path class="cls-2" d="M401.93,0V364.92c-27.94-6.1-54.51-22.67-67.54-48.09-8.22-16-11.56-35.79-25.91-46.66-12-9.12-28.85-9.21-43.36-5s-27.59,12.11-41.46,18c-21.66,9.29-46.1,13.73-69,8.1S111,268.72,104.81,246c-6.68-24.61,3-54.63-13.74-73.92-18.67-21.58-56.81-13.13-77.52-32.78C.32,126.73-1.66,106.22,1.06,88.18s9.26-35.53,9.86-53.77c.39-12-2.63-24.92-9.5-34.41Z"/><path class="cls-3" d="M392.77,327.9c-24.82-1.46-50.7-16.44-56.58-40.61-5.23-21.51,5.45-47-7.69-64.84-10.12-13.73-30.81-15.71-46.55-9.14s-27.7,19.61-39.16,32.23-23.52,25.63-39.34,32a57,57,0,0,1-78.06-47.42c-1.65-17,4.32-33.68,6.14-50.63s-2.24-36.88-17.25-45c-12.84-6.93-28.52-2.64-42.76.57s-31.45,4.28-41.15-6.63c-11.11-12.49-5.23-32.15,2.46-47C46.38,55.3,64.42,28.63,65.39,0h-64c6.87,9.49,9.89,22.41,9.5,34.41-.6,18.24-7.14,35.73-9.86,53.77s-.74,38.55,12.49,51.1c20.71,19.65,58.85,11.2,77.52,32.78,16.7,19.29,7.06,49.31,13.74,73.92,6.19,22.74,27,39.71,49.87,45.33s47.32,1.19,69-8.1c13.87-5.94,27-13.86,41.46-18s31.34-4.11,43.36,5c14.35,10.87,17.69,30.65,25.91,46.66,13,25.42,39.6,42,67.54,48.09V328C398.89,328.09,395.83,328.07,392.77,327.9Zm-95.63-86.42c-6.65,4-22.19,3.7-22.2-7,0-9,13.55-15,21.09-14.78C310.16,220.05,305.88,236.25,297.14,241.48Zm26.55-3.15a4.38,4.38,0,0,1-2.48,2.64,5,5,0,0,1-3.95-.47,7.73,7.73,0,0,1-4-5.17c-.48-2.34.16-5.76,2.64-6.75a5.91,5.91,0,0,1,5.45,1.1,8,8,0,0,1,2.58,4.95A7.59,7.59,0,0,1,323.69,238.33Z"/></g></g></g></svg>